<svg xmlns="http://www.w3.org/2000/svg" width="14" height="11.608" viewBox="0 0 14 11.608">
  <g id="ico-legend-list" transform="translate(-0.001 -1.21)">
    <g id="그룹_722" data-name="그룹 722">
      <g id="그룹_719" data-name="그룹 719">
        <path id="패스_815" data-name="패스 815" d="M12.991,1.21H5.315a1.015,1.015,0,0,0-1.01,1v.407a1.011,1.011,0,0,0,1.01,1.01h7.676A1.011,1.011,0,0,0,14,2.619V2.212A1.014,1.014,0,0,0,12.991,1.21Z" fill="#f6f6f6"/>
      </g>
      <g id="그룹_720" data-name="그룹 720">
        <path id="패스_816" data-name="패스 816" d="M12.991,5.791H5.315a1.015,1.015,0,0,0-1.01,1V7.2a1.01,1.01,0,0,0,1.01,1.009h7.676A1.01,1.01,0,0,0,14,7.2V6.792A1.014,1.014,0,0,0,12.991,5.791Z" fill="#f6f6f6"/>
        <path id="패스_817" data-name="패스 817" d="M12.991,5.791H5.315a1.015,1.015,0,0,0-1.01,1V7.2a1.01,1.01,0,0,0,1.01,1.009h7.676A1.01,1.01,0,0,0,14,7.2V6.792A1.014,1.014,0,0,0,12.991,5.791Z" transform="translate(0 4.609)" fill="#f6f6f6"/>
      </g>
    </g>
    <circle id="타원_86" data-name="타원 86" cx="1.209" cy="1.209" r="1.209" transform="translate(0.001 1.21)" fill="#f6f6f6"/>
    <circle id="타원_87" data-name="타원 87" cx="1.209" cy="1.209" r="1.209" transform="translate(0.001 5.791)" fill="#f6f6f6"/>
    <circle id="타원_88" data-name="타원 88" cx="1.209" cy="1.209" r="1.209" transform="translate(0.001 10.371)" fill="#f6f6f6"/>
  </g>
</svg>
