<svg width="24" height="24" viewBox="0 0 24 24" fill="none" xmlns="http://www.w3.org/2000/svg">
<path d="M3 22V20H21V22H3ZM12 20L5 11H9V4H15V11H19L12 20ZM12 16.5L14.9 13H13V4H11V13H9.1L12 16.5Z" fill="#555555"/>
<path d="M2 3.5V5.5C2.58333 5.5 3.15417 5.42083 3.7125 5.2625C4.27083 5.10417 4.80833 4.875 5.325 4.575C5.85833 4.89167 6.40833 5.125 6.975 5.275C7.54167 5.425 8.10833 5.5 8.675 5.5C9.25833 5.5 9.84167 5.425 10.425 5.275C11.0083 5.125 11.5417 4.89167 12.025 4.575C12.5583 4.90833 13.1125 5.14583 13.6875 5.2875C14.2625 5.42917 14.825 5.5 15.375 5.5C15.925 5.5 16.4875 5.42917 17.0625 5.2875C17.6375 5.14583 18.1917 4.90833 18.725 4.575C19.2417 4.875 19.7708 5.10417 20.3125 5.2625C20.8542 5.42083 21.4167 5.5 22 5.5V3.5C21.4667 3.5 20.95 3.39583 20.45 3.1875C19.95 2.97917 19.375 2.625 18.725 2.125C18.0917 2.59167 17.5125 2.93333 16.9875 3.15C16.4625 3.36667 15.925 3.475 15.375 3.475C14.8083 3.475 14.2417 3.36667 13.675 3.15C13.1083 2.93333 12.5583 2.59167 12.025 2.125C11.5417 2.55833 11 2.89167 10.4 3.125C9.8 3.35833 9.225 3.475 8.675 3.475C8.125 3.475 7.55417 3.35417 6.9625 3.1125C6.37083 2.87083 5.825 2.54167 5.325 2.125C4.74167 2.55833 4.2 2.89583 3.7 3.1375C3.2 3.37917 2.63333 3.5 2 3.5Z" fill="#555555"/>
</svg>
