<svg width="24" height="24" viewBox="0 0 24 24" fill="none" xmlns="http://www.w3.org/2000/svg">
<path d="M18 21C16.6167 21 15.4375 20.5125 14.4625 19.5375C13.4875 18.5625 13 17.3833 13 16C13 14.6167 13.4875 13.4375 14.4625 12.4625C15.4375 11.4875 16.6167 11 18 11C19.3833 11 20.5625 11.4875 21.5375 12.4625C22.5125 13.4375 23 14.6167 23 16C23 17.3833 22.5125 18.5625 21.5375 19.5375C20.5625 20.5125 19.3833 21 18 21ZM19.65 18.35L20.35 17.65L18.5 15.8V13H17.5V16.2L19.65 18.35ZM20 4V9.3C20.3667 9.41667 20.7167 9.55417 21.05 9.7125C21.3833 9.87083 21.7 10.0583 22 10.275V4C22 3.45 21.8042 2.97917 21.4125 2.5875C21.0208 2.19583 20.55 2 20 2H4C3.45 2 2.97917 2.19583 2.5875 2.5875C2.19583 2.97917 2 3.45 2 4V16C2 16.55 2.19583 17.0208 2.5875 17.4125C2.97917 17.8042 3.45 18 4 18H11.3C11.2 17.6833 11.125 17.3583 11.075 17.025C11.025 16.6917 11 16.35 11 16H4V4H20Z" fill="#555555"/>
<path d="M2 12V10H2.94C3.5 10 4.02333 9.825 4.51 9.475C4.99667 9.125 5.38667 8.65 5.68 8.05C6.13333 7.1 6.74333 6.35417 7.51 5.8125C8.27667 5.27083 9.10667 5 10 5C10.8933 5 11.7233 5.27083 12.49 5.8125C13.2567 6.35417 13.8667 7.1 14.32 8.05C14.6133 8.65 15 9 15 9L15.5 9.5C14.5 10 14 10.5 14 10.5C13.5 10 13.3867 10 12.96 9.1C12.6533 8.45 12.2367 7.9375 11.71 7.5625C11.1833 7.1875 10.6133 7 10 7C9.4 7 8.83667 7.1875 8.31 7.5625C7.78333 7.9375 7.36667 8.45 7.06 9.1C6.63333 10 6.05 10.7083 5.31 11.225C4.57 11.7417 3.78 12 2.94 12H2Z" fill="#555555"/>
</svg>
