<svg xmlns="http://www.w3.org/2000/svg" width="20" height="20" viewBox="0 0 20 20">
  <g id="ico-meta-data" transform="translate(-433 -21)">
    <path id="path" d="M15.744,16.209H2.258A2.258,2.258,0,0,1,0,13.953V10.009a1.161,1.161,0,0,1,.057-.357L2.13,2.517A1.966,1.966,0,0,1,3.948,1.209h10.1a1.964,1.964,0,0,1,1.819,1.309l2.073,7.133a1.155,1.155,0,0,1,.057.357v3.944a2.258,2.258,0,0,1-2.258,2.256ZM13.42,3.475H4.654a.619.619,0,0,0-.6.456L2.822,8.388a.385.385,0,0,0,.368.488H5.817a1.155,1.155,0,0,1,.4.079,1.135,1.135,0,0,1,.112.057,1.084,1.084,0,0,1,.225.154.734.734,0,0,1,.1.093,1.112,1.112,0,0,1,.157.234c.021.034.039.067.057.1,0,.012.014.023.018.035a2.246,2.246,0,0,0,4.244,0c0-.012.013-.023.019-.035a1.014,1.014,0,0,1,.055-.1,1.07,1.07,0,0,1,.158-.234.711.711,0,0,1,.094-.093,1.017,1.017,0,0,1,.225-.153l.113-.057a1.113,1.113,0,0,1,.4-.079H14.81a.385.385,0,0,0,.369-.49L13.923,3.86A.524.524,0,0,0,13.42,3.475Z" transform="translate(434 21.791)" fill="#424242" fill-rule="evenodd"/>
    <rect id="사각형_501" data-name="사각형 501" width="20" height="20" transform="translate(433 21)" fill="none"/>
  </g>
</svg>
