<svg width="24" height="24" viewBox="0 0 24 24" fill="none" xmlns="http://www.w3.org/2000/svg">
<path d="M18.5 21V19H22.5V21H18.5ZM19.5 16.9998V15H21.5V16.9998H19.5ZM19.5 13V11H21.5V13H19.5ZM19.5 9V7H21.5V9H19.5ZM18.5 5V3H22.5V5H18.5Z" fill="#555555"/>
<path d="M12.5 18C12.9167 18 13.2708 17.8542 13.5625 17.5625C13.8542 17.2708 14 16.9167 14 16.5C14 16.0833 13.8542 15.7292 13.5625 15.4375C13.2708 15.1458 12.9167 15 12.5 15C12.0833 15 11.7292 15.1458 11.4375 15.4375C11.1458 15.7292 11 16.0833 11 16.5C11 16.9167 11.1458 17.2708 11.4375 17.5625C11.7292 17.8542 12.0833 18 12.5 18ZM7.45 17.95L13.95 11.45L12.55 10.05L6.05 16.55L7.45 17.95ZM7.5 13C7.91667 13 8.27083 12.8542 8.5625 12.5625C8.85417 12.2708 9 11.9167 9 11.5C9 11.0833 8.85417 10.7292 8.5625 10.4375C8.27083 10.1458 7.91667 10 7.5 10C7.08333 10 6.72917 10.1458 6.4375 10.4375C6.14583 10.7292 6 11.0833 6 11.5C6 11.9167 6.14583 12.2708 6.4375 12.5625C6.72917 12.8542 7.08333 13 7.5 13ZM10 22C7.71667 22 5.8125 21.2167 4.2875 19.65C2.7625 18.0833 2 16.1333 2 13.8C2 12.1333 2.6625 10.3208 3.9875 8.3625C5.3125 6.40417 7.31667 4.28333 10 2C12.6833 4.28333 14.6875 6.40417 16.0125 8.3625C17.3375 10.3208 18 12.1333 18 13.8C18 16.1333 17.2375 18.0833 15.7125 19.65C14.1875 21.2167 12.2833 22 10 22ZM10 20C11.7333 20 13.1667 19.4125 14.3 18.2375C15.4333 17.0625 16 15.5833 16 13.8C16 12.5833 15.4958 11.2083 14.4875 9.675C13.4792 8.14167 11.9833 6.46667 10 4.65C8.01667 6.46667 6.52083 8.14167 5.5125 9.675C4.50417 11.2083 4 12.5833 4 13.8C4 15.5833 4.56667 17.0625 5.7 18.2375C6.83333 19.4125 8.26667 20 10 20Z" fill="#555555"/>
</svg>
