<svg xmlns="http://www.w3.org/2000/svg" width="20" height="20" viewBox="0 0 20 20">
  <g id="ico-tool-distance" transform="translate(-734 -100)">
    <path id="path" d="M67.653-138.972l-2.438-2.44a1.634,1.634,0,0,0-2.255,0l-1.95,1.952,1.7,1.755a.683.683,0,0,1,0,.966.676.676,0,0,1-.483.2.678.678,0,0,1-.483-.2L60.5-137.982l-.472-.5L57.256-135.7l1.726,1.727a.684.684,0,0,1,0,.967.682.682,0,0,1-.484.2.682.682,0,0,1-.483-.2l-1.725-1.727-2.744,2.746.482.516,1.227,1.227a.683.683,0,0,1,0,.966.679.679,0,0,1-.483.2.68.68,0,0,1-.484-.2l-1.242-1.243-.466-.5-1.994,2a1.6,1.6,0,0,0,0,2.256l2.438,2.44a1.583,1.583,0,0,0,1.127.467,1.584,1.584,0,0,0,1.128-.467l12.375-12.385A1.6,1.6,0,0,0,67.653-138.972Z" transform="translate(684.88 242.864)" fill="#424242"/>
    <rect id="ico-mask-20px" width="20" height="20" transform="translate(734 100)" fill="none"/>
  </g>
</svg>
