<svg xmlns="http://www.w3.org/2000/svg" width="24" height="24" viewBox="0 0 24 24">
  <g id="ico-backspace" transform="translate(-12 -12)">
    <path id="path" d="M17.689,1.822H6.358a2.312,2.312,0,0,0-1.85.924L.278,8.386a1.389,1.389,0,0,0,0,1.666l4.23,5.64a2.312,2.312,0,0,0,1.85.924H17.689A2.312,2.312,0,0,0,20,14.3V4.133A2.312,2.312,0,0,0,17.689,1.822ZM14.015,7.68,12.477,9.219l1.539,1.539A1.088,1.088,0,0,1,12.477,12.3l-1.539-1.539L9.4,12.3a1.087,1.087,0,0,1-1.537-1.539L9.4,9.219,7.862,7.68A1.088,1.088,0,0,1,9.4,6.142L10.938,7.68l1.539-1.539A1.088,1.088,0,0,1,14.015,7.68Z" transform="translate(13.999 14.781)" fill="#424242"/>
    <rect id="사각형_507" data-name="사각형 507" width="24" height="24" transform="translate(12 12)" fill="none"/>
  </g>
</svg>
