<svg xmlns="http://www.w3.org/2000/svg" width="18" height="18" viewBox="0 0 18 18">
  <g id="ico-tool-area-2" transform="translate(-15 -405)">
    <g id="path" transform="translate(15.265 405.265)">
      <path id="path-2" data-name="path" d="M8657.99,3223.206a4.263,4.263,0,0,1-4.257-4.257v-8.959a4.261,4.261,0,0,1,4.257-4.254h8.957a4.259,4.259,0,0,1,4.257,4.254v8.959a4.261,4.261,0,0,1-4.257,4.257Zm-2.911-13.216v8.959a2.914,2.914,0,0,0,2.911,2.912h8.957a2.914,2.914,0,0,0,2.912-2.912v-8.959a2.916,2.916,0,0,0-2.912-2.912h-8.957A2.916,2.916,0,0,0,8655.079,3209.99Zm6.482,9.856a.921.921,0,0,1,.918-.923h.009a.922.922,0,1,1-.927.923Zm0-2.687a.921.921,0,0,1,.918-.923h.009a.923.923,0,1,1-.927.923Zm5.375-2.688a.92.92,0,0,1,.916-.923h.012a.922.922,0,1,1-.928.923Zm-2.687,0a.92.92,0,0,1,.916-.923h.011a.922.922,0,1,1-.927.923Zm-2.687,0a.921.921,0,0,1,.918-.923h.009a.922.922,0,1,1-.927.923Zm-2.687,0a.92.92,0,0,1,.916-.923h.009a.922.922,0,1,1-.925.923Zm-2.687,0a.92.92,0,0,1,.916-.923h.009a.922.922,0,1,1-.925.923Zm5.375-2.687a.921.921,0,0,1,.918-.923h.009a.922.922,0,1,1-.927.923Zm0-2.687a.921.921,0,0,1,.918-.923h.009a.922.922,0,1,1-.927.923Z" transform="translate(-8653.735 -3205.735)" fill="#424242"/>
      <path id="path-3" data-name="path" d="M1257.255,340.8h8.959a4.461,4.461,0,0,1,4.456,4.455v8.959a4.461,4.461,0,0,1-4.456,4.455h-8.959a4.46,4.46,0,0,1-4.455-4.455v-8.959A4.46,4.46,0,0,1,1257.255,340.8Zm8.959,17.47a4.06,4.06,0,0,0,4.056-4.055v-8.959a4.06,4.06,0,0,0-4.056-4.055h-8.959a4.06,4.06,0,0,0-4.055,4.055v8.959a4.06,4.06,0,0,0,4.055,4.055Zm-8.959-16.126h8.959a3.115,3.115,0,0,1,3.111,3.112v8.959a3.115,3.115,0,0,1-3.111,3.112h-8.959a3.115,3.115,0,0,1-3.111-3.112v-8.959A3.115,3.115,0,0,1,1257.255,342.144Zm8.959,14.782a2.715,2.715,0,0,0,2.712-2.712v-8.959a2.715,2.715,0,0,0-2.712-2.712h-8.959a2.715,2.715,0,0,0-2.712,2.712v8.959a2.715,2.715,0,0,0,2.712,2.712Z" transform="translate(-1253 -341)" fill="#424242"/>
    </g>
    <rect id="ico-mask-20px" width="18" height="18" transform="translate(15 405)" fill="none"/>
  </g>
</svg>
