<svg xmlns="http://www.w3.org/2000/svg" width="24" height="24" viewBox="0 0 24 24">
  <g id="ico-arrow-next" transform="translate(24 24) rotate(180)">
    <g id="그룹_802" data-name="그룹 802">
      <circle id="타원_78" data-name="타원 78" cx="12" cy="12" r="12" fill="#424242"/>
      <path id="패스_828" data-name="패스 828" d="M4.552,8A1.122,1.122,0,0,1,3.8,7.731L.252,4.531a.685.685,0,0,1,0-1.062L3.8.269A1.182,1.182,0,0,1,5.215.2.694.694,0,0,1,5.3,1.331L2.337,4,5.3,6.669A.694.694,0,0,1,5.215,7.8,1.151,1.151,0,0,1,4.552,8Z" transform="translate(9.224 8)" fill="#fff"/>
    </g>
  </g>
</svg>
