<svg width="24" height="24" viewBox="0 0 24 24" fill="none" xmlns="http://www.w3.org/2000/svg">
<path d="M12 6.80775C12.2288 6.80775 12.4207 6.73033 12.5755 6.5755C12.7303 6.42067 12.8077 6.22883 12.8077 6C12.8077 5.77117 12.7303 5.57933 12.5755 5.4245C12.4207 5.26967 12.2288 5.19225 12 5.19225C11.7712 5.19225 11.5793 5.26967 11.4245 5.4245C11.2697 5.57933 11.1923 5.77117 11.1923 6C11.1923 6.22883 11.2697 6.42067 11.4245 6.5755C11.5793 6.73033 11.7712 6.80775 12 6.80775ZM11.25 14.7115H12.75V8.673H11.25V14.7115ZM2.5 21.0385V4.30775C2.5 3.80258 2.675 3.375 3.025 3.025C3.375 2.675 3.80258 2.5 4.30775 2.5H19.6923C20.1974 2.5 20.625 2.675 20.975 3.025C21.325 3.375 21.5 3.80258 21.5 4.30775V15.6923C21.5 16.1974 21.325 16.625 20.975 16.975C20.625 17.325 20.1974 17.5 19.6923 17.5H6.0385L2.5 21.0385Z" fill="#196DFF"/>
</svg>
