<svg xmlns="http://www.w3.org/2000/svg" width="20" height="20" viewBox="0 0 20 20">
  <g id="ico-tool-area" transform="translate(-734 -140)">
    <path id="path" d="M16,5.2V.474a.494.494,0,0,0-.494-.494H10.785a.5.5,0,0,0-.494.494V1.756A.494.494,0,0,1,9.8,2.25H6.2a.494.494,0,0,1-.494-.494V.474A.494.494,0,0,0,5.215-.02H.494A.494.494,0,0,0,0,.474V5.2A.493.493,0,0,0,.494,5.7H1.773a.494.494,0,0,1,.494.495V9.77a.494.494,0,0,1-.494.495H.494A.493.493,0,0,0,0,10.758v4.728a.494.494,0,0,0,.494.494H5.215a.494.494,0,0,0,.494-.494V14.2A.494.494,0,0,1,6.2,13.71H9.8a.494.494,0,0,1,.493.494v1.282a.5.5,0,0,0,.494.494h4.721A.494.494,0,0,0,16,15.486V10.758a.493.493,0,0,0-.494-.494h-.959a.494.494,0,0,1-.494-.495V6.19a.494.494,0,0,1,.494-.495h.959A.493.493,0,0,0,16,5.2Zm-3.615,5.063h-1.6a.494.494,0,0,0-.494.494v1.281a.493.493,0,0,1-.493.494H6.2a.493.493,0,0,1-.494-.494V10.758a.493.493,0,0,0-.494-.494H3.936a.494.494,0,0,1-.494-.495V6.19A.494.494,0,0,1,3.936,5.7H5.215A.493.493,0,0,0,5.709,5.2V3.921A.494.494,0,0,1,6.2,3.427H9.8a.494.494,0,0,1,.493.494V5.2a.494.494,0,0,0,.494.494h1.6a.494.494,0,0,1,.493.495V9.77A.494.494,0,0,1,12.385,10.265Z" transform="translate(736 142.02)" fill="#196DFF"/>
    <rect id="ico-mask-20px" width="20" height="20" transform="translate(734 140)" fill="none"/>
  </g>
</svg>
