<svg xmlns="http://www.w3.org/2000/svg" width="18.037" height="21.845" viewBox="0 0 18.037 21.845">
  <g id="ico-build-info" transform="translate(-10 -8.155)">
    <path id="Subtraction_2" data-name="Subtraction 2" d="M13.67,18.185H1.052A1.1,1.1,0,0,1,0,17.049V1.136A1.1,1.1,0,0,1,1.052,0H6.893a6.04,6.04,0,0,0-.4,2.165A6.1,6.1,0,0,0,6.623,3.41H5.258A1.1,1.1,0,0,0,4.206,4.546,1.1,1.1,0,0,0,5.258,5.683H7.62a6.078,6.078,0,0,0,4.937,2.544,6.036,6.036,0,0,0,2.165-.4v9.221A1.1,1.1,0,0,1,13.67,18.185ZM5.258,12.5a1.14,1.14,0,0,0,0,2.273H9.464a1.14,1.14,0,0,0,0-2.273Zm0-4.547a1.14,1.14,0,0,0,0,2.273H9.464a1.14,1.14,0,0,0,0-2.273Z" transform="translate(10.5 11.315)" fill="#196DFF" stroke="rgba(0,0,0,0)" stroke-width="1"/>
    <path id="Subtraction_3" data-name="Subtraction 3" d="M4.979,9.613a4.979,4.979,0,1,1,4.98-4.98A4.985,4.985,0,0,1,4.979,9.613Zm.581-6.34h0l-2.088.342v.306c.552,0,.712.076.774.369A8.958,8.958,0,0,1,4.31,5.614V6.721c0,.85-.127,1.017-.8,1.053v.36H6.344v-.36c-.688-.027-.783-.163-.783-1.116V3.274ZM4.931.664a.69.69,0,0,0-.693.7.7.7,0,0,0,1.4,0A.7.7,0,0,0,4.931.664Z" transform="translate(18.077 8.5)" fill="#444a58"/>
  </g>
</svg>
