<svg xmlns="http://www.w3.org/2000/svg" width="20" height="20" viewBox="0 0 20 20">
  <g id="ico-tool-save" transform="translate(-734 -430)">
    <path id="path" d="M7.982,16h-6.2A1.758,1.758,0,0,1,0,14.218Q0,8,0,1.777A1.761,1.761,0,0,1,1.768,0Q7.021,0,12.273,0a.378.378,0,0,1,.3.117c1.1,1.11,2.211,2.213,3.312,3.323A.432.432,0,0,1,16,3.713Q16,8.983,16,14.252A1.768,1.768,0,0,1,14.256,16ZM10.1,2.821H3.478a1.12,1.12,0,0,0-1.12,1.12V5.234a1.12,1.12,0,0,0,1.12,1.12H10.1a1.12,1.12,0,0,0,1.12-1.12V3.941A1.12,1.12,0,0,0,10.1,2.821ZM8,13.278A2.3,2.3,0,1,0,5.7,10.941,2.3,2.3,0,0,0,8,13.278Z" transform="translate(736 432)" fill="#424242"/>
    <rect id="ico-mask-20px" width="20" height="20" transform="translate(734 430)" fill="none"/>
  </g>
</svg>
