<svg xmlns="http://www.w3.org/2000/svg" width="18.101" height="18" viewBox="0 0 18.101 18">
  <g id="ico-3d-measurement" transform="translate(-14.949 -450)">
    <g id="path" transform="translate(15 450.556)">
      <path id="합치기_5" data-name="합치기 5" d="M8666.692,3182.333a.685.685,0,1,1,0-1.369h1.846a2.069,2.069,0,0,0,2.078-2.054v-1.826a.692.692,0,0,1,1.384,0v1.826a3.448,3.448,0,0,1-3.462,3.424Zm-9.23,0a3.449,3.449,0,0,1-3.463-3.424v-1.826a.693.693,0,0,1,1.387,0v1.826a2.069,2.069,0,0,0,2.076,2.054h1.846a.685.685,0,1,1,0,1.369Zm4.708-3.117-3.693-2.194a1.6,1.6,0,0,1-.784-1.369v-3.347a1.581,1.581,0,0,1,.818-1.391c.026-.013.053-.017.078-.031l3.53-2.268a1.632,1.632,0,0,1,1.761,0l3.528,2.266c.026.013.055.018.08.033a1.579,1.579,0,0,1,.818,1.391v3.347a1.6,1.6,0,0,1-.783,1.369l-3.691,2.194a1.639,1.639,0,0,1-1.662,0Zm4.4-7.106-2.742,1.628c-.046.026-.094.037-.139.059v3.9l3.118-1.85a.234.234,0,0,0,.111-.2v-3.347a.221.221,0,0,0-.117-.2.227.227,0,0,0-.113-.031A.233.233,0,0,0,8666.574,3172.11Zm-7.38,0a.219.219,0,0,0-.117.2v3.347a.23.23,0,0,0,.113.2l3.116,1.85v-3.9c-.044-.022-.094-.033-.137-.059l-2.742-1.628a.22.22,0,0,0-.233,0Zm3.681-2.344-2.262,1.454,2.268,1.345a.231.231,0,0,0,.237,0l2.268-1.345-2.261-1.454a.233.233,0,0,0-.124-.036A.239.239,0,0,0,8662.875,3169.764Zm7.741.929v-1.826a2.069,2.069,0,0,0-2.078-2.055h-1.846a.684.684,0,1,1,0-1.369h1.846a3.448,3.448,0,0,1,3.462,3.424v1.826a.692.692,0,0,1-1.384,0Zm-16.617,0v-1.826a3.449,3.449,0,0,1,3.463-3.424h1.846a.684.684,0,1,1,0,1.369h-1.846a2.069,2.069,0,0,0-2.076,2.055v1.826a.693.693,0,0,1-1.387,0Z" transform="translate(-8654 -3165.444)" fill="#424242" stroke="#424242" stroke-width="0.1"/>
    </g>
    <rect id="ico-mask-20px" width="18" height="18" transform="translate(15 450)" fill="none"/>
  </g>
</svg>
