<svg width="24" height="24" viewBox="0 0 24 24" fill="none" xmlns="http://www.w3.org/2000/svg">
<path d="M12 19C11.6333 19 11.2792 18.9375 10.9375 18.8125C10.5958 18.6875 10.2833 18.5 10 18.25L3.7 12.675C3.48333 12.4917 3.3125 12.2667 3.1875 12C3.0625 11.7333 3 11.4583 3 11.175V9.175C3 8.89167 3.05417 8.61667 3.1625 8.35C3.27083 8.08333 3.43333 7.85833 3.65 7.675L9.95 1.8C10.2333 1.53333 10.55 1.33333 10.9 1.2C11.25 1.06667 11.6167 1 12 1C12.3833 1 12.75 1.06667 13.1 1.2C13.45 1.33333 13.7667 1.53333 14.05 1.8L20.35 7.675C20.5667 7.85833 20.7292 8.08333 20.8375 8.35C20.9458 8.61667 21 8.89167 21 9.175V11.175C21 11.4583 20.9375 11.7333 20.8125 12C20.6875 12.2667 20.5167 12.4917 20.3 12.675L14 18.25C13.7167 18.5 13.4042 18.6875 13.0625 18.8125C12.7208 18.9375 12.3667 19 12 19ZM11.9 14.3C12.1333 14.3 12.3542 14.2625 12.5625 14.1875C12.7708 14.1125 12.9667 13.9917 13.15 13.825L18.7 8.9L12.7 3.25C12.5833 3.16667 12.4667 3.10417 12.35 3.0625C12.2333 3.02083 12.1083 3 11.975 3C11.8417 3 11.7167 3.02083 11.6 3.0625C11.4833 3.10417 11.3833 3.16667 11.3 3.25L5.2 9L10.65 13.825C10.8333 13.9917 11.0292 14.1125 11.2375 14.1875C11.4458 14.2625 11.6667 14.3 11.9 14.3ZM9 10.25C9.35 10.25 9.64583 10.1292 9.8875 9.8875C10.1292 9.64583 10.25 9.35 10.25 9C10.25 8.65 10.1292 8.35417 9.8875 8.1125C9.64583 7.87083 9.35 7.75 9 7.75C8.65 7.75 8.35417 7.87083 8.1125 8.1125C7.87083 8.35417 7.75 8.65 7.75 9C7.75 9.35 7.87083 9.64583 8.1125 9.8875C8.35417 10.1292 8.65 10.25 9 10.25Z" fill="#555555"/>
<path d="M9.95 18.25C9.46667 17.7667 9.10417 17.2208 8.8625 16.6125C8.62083 16.0042 8.5 15.3667 8.5 14.7C8.5 13.3 8.98333 12.1125 9.95 11.1375C10.9167 10.1625 12.1 9.675 13.5 9.675C14.1667 9.675 14.8042 9.8 15.4125 10.05C16.0208 10.3 16.5667 10.6667 17.05 11.15L15.65 12.55C15.3667 12.2667 15.0375 12.05 14.6625 11.9C14.2875 11.75 13.9 11.675 13.5 11.675C12.6667 11.675 11.9583 11.9667 11.375 12.55C10.7917 13.1333 10.5 13.8417 10.5 14.675C10.5 15.075 10.575 15.4625 10.725 15.8375C10.875 16.2125 11.0917 16.5417 11.375 16.825L9.95 18.25Z" fill="#555555"/>
<path d="M19.7279 15.6569L21.1421 17.0711L19.7279 18.4853L18.3137 17.0711L19.7279 15.6569ZM15.8995 18.4853L17.3137 19.8995L15.8995 21.3137L14.4853 19.8995L15.8995 18.4853ZM12.0711 21.3137L13.4853 22.7279C13.0964 23.1168 12.625 23.3113 12.0711 23.3113C11.5172 23.3113 11.0458 23.1168 10.6569 22.7279L12.0711 21.3137ZM4.41422 15.6569L5.82843 17.0711L4.41422 18.4853L3 17.0711L4.41422 15.6569ZM8.24264 18.4853L9.65686 19.8995L8.24264 21.3137L6.82843 19.8995L8.24264 18.4853Z" fill="#555555"/>
<path d="M12.5 5L14.6651 8H10.3349L12.5 5Z" fill="#555555"/>
</svg>
