<svg xmlns="http://www.w3.org/2000/svg" width="20" height="20" viewBox="0 0 20 20">
  <g id="ico-tool-print" transform="translate(-734 -470)">
    <g id="path" transform="translate(733.317 468.75)">
      <path id="path-2" data-name="path" d="M8660.655,2974.249a1.515,1.515,0,0,1-1.513-1.513v-6.919a.65.65,0,0,1,.648-.648h8.647a.651.651,0,0,1,.651.648v6.919a1.517,1.517,0,0,1-1.516,1.513Zm1.082-3.243a.647.647,0,0,0,.648.649h3.461a.649.649,0,0,0,0-1.3h-3.461A.649.649,0,0,0,8661.737,2971.006Zm0-2.594a.647.647,0,0,0,.648.649h3.461a.649.649,0,0,0,0-1.3h-3.461A.648.648,0,0,0,8661.737,2968.412Zm8.649-2.594a1.95,1.95,0,0,0-1.948-1.946h-8.647a1.948,1.948,0,0,0-1.945,1.946v4.088a2.376,2.376,0,0,1-2.163-2.357v-3.461a2.38,2.38,0,0,1,2.379-2.377h12.107a2.38,2.38,0,0,1,2.379,2.377v3.461a2.376,2.376,0,0,1-2.161,2.357Zm-.218-5.4h-12.107a3.566,3.566,0,0,0-.634.063,2.375,2.375,0,0,1,2.363-2.227h8.647a2.376,2.376,0,0,1,2.364,2.227A3.566,3.566,0,0,0,8670.169,2960.413Z" transform="translate(-8653.433 -2955)" fill="#424242" stroke="rgba(0,0,0,0)" stroke-width="1"/>
    </g>
    <rect id="ico-mask-20px" width="20" height="20" transform="translate(734 470)" fill="none"/>
  </g>
</svg>
