<svg xmlns="http://www.w3.org/2000/svg" width="20" height="20" viewBox="0 0 20 20">
  <g id="ico-sea-level-1" transform="translate(-15 -350)">
    <g id="path" transform="translate(-1848 -277)">
      <path id="path-2" data-name="path" d="M10525.138,3773.72a.744.744,0,0,1-.228-.132l-2.221-1.919a.585.585,0,0,1,0-.9.767.767,0,0,1,.98,0l1.026.885v-8.536l-1.026.883a.759.759,0,0,1-.98,0,.589.589,0,0,1-.214-.449.6.6,0,0,1,.214-.455l2.221-1.917a.739.739,0,0,1,.228-.132.81.81,0,0,1,.525,0,.774.774,0,0,1,.228.132l2.221,1.917a.6.6,0,0,1,.214.455.589.589,0,0,1-.214.449.763.763,0,0,1-.983,0l-1.023-.883v8.536l1.023-.885a.771.771,0,0,1,.983,0,.585.585,0,0,1,0,.9l-2.221,1.919a.78.78,0,0,1-.228.132.791.791,0,0,1-.525,0Zm-.3-14.05a4.858,4.858,0,0,1-1.647-.431,3.379,3.379,0,0,0-1.43-.328c-.056,0-.108,0-.164,0a5.831,5.831,0,0,0-2.688.7.519.519,0,0,1-.24.061.715.715,0,0,1-.635-.621,1.023,1.023,0,0,1,.392-1.137,6.789,6.789,0,0,1,3.362-.822,4.431,4.431,0,0,1,1.806.41l0,0a3.877,3.877,0,0,0,1.327.352c.13.01.262.016.386.016a4.821,4.821,0,0,0,1.727-.36l.011,0a5.883,5.883,0,0,1,2.128-.431c.129,0,.264.005.4.013a6.986,6.986,0,0,1,2.8.822,1.026,1.026,0,0,1,.386,1.142.717.717,0,0,1-.629.618.519.519,0,0,1-.249-.066,5.908,5.908,0,0,0-2.376-.7c-.108-.005-.217-.01-.32-.01a5.015,5.015,0,0,0-1.8.37,5.784,5.784,0,0,1-2.072.42C10525.153,3759.688,10525,3759.683,10524.839,3759.67Zm0-3.087a4.907,4.907,0,0,1-1.647-.431,3.454,3.454,0,0,0-1.43-.33l-.177,0a5.768,5.768,0,0,0-2.676.706.519.519,0,0,1-.24.058.716.716,0,0,1-.635-.621,1.028,1.028,0,0,1,.392-1.139,6.911,6.911,0,0,1,3.2-.822c.056,0,.108,0,.164,0a4.359,4.359,0,0,1,1.806.412,3.871,3.871,0,0,0,1.332.349c.13.01.262.016.386.016a4.865,4.865,0,0,0,1.734-.36l.008,0a6.758,6.758,0,0,1,1.541-.394.386.386,0,0,1,.056,0c.354,0,.64.362.666.843a.857.857,0,0,1-.607.973,5.7,5.7,0,0,0-1.319.346,5.8,5.8,0,0,1-2.072.418C10525.158,3756.6,10525,3756.6,10524.839,3756.583Zm7.047-.063a6.408,6.408,0,0,0-1.316-.523.923.923,0,0,1-.525-1.047c.053-.436.327-.756.655-.756a.582.582,0,0,1,.135.019,7.228,7.228,0,0,1,1.544.613,1.031,1.031,0,0,1,.389,1.142.72.72,0,0,1-.635.616A.51.51,0,0,1,10531.886,3756.519Z" transform="translate(-8652.4 -3126.9)" fill="#196DFF"/>
    </g>
    <rect id="ico-mask-20px" width="20" height="20" transform="translate(15 350)" fill="none"/>
  </g>
</svg>
