<svg width="24" height="25" viewBox="0 0 24 25" fill="none" xmlns="http://www.w3.org/2000/svg">
<path d="M2.38502 22H1.13806V20.424H2.38502C2.79028 20.424 3.14879 20.3329 3.46053 20.1506C3.77227 19.9683 4.0996 19.7782 4.44251 19.5803C4.79582 19.7886 5.12314 19.9813 5.42449 20.1584C5.72584 20.3355 6.08435 20.424 6.5 20.424C6.91565 20.424 7.27416 20.3355 7.57551 20.1584C7.87686 19.9813 8.20418 19.7886 8.55749 19.5803C8.9004 19.7782 9.22773 19.9683 9.53947 20.1506C9.85121 20.3329 10.2097 20.424 10.615 20.424H11.8619V22H10.615C10.2617 22 9.94474 21.9557 9.66417 21.8672C9.3836 21.7786 9.01471 21.6042 8.55749 21.3438C8.10027 21.6042 7.73138 21.7786 7.45081 21.8672C7.17024 21.9557 6.85331 22 6.5 22C6.14669 22 5.82976 21.9557 5.54919 21.8672C5.26862 21.7786 4.89973 21.6042 4.44251 21.3438C3.99568 21.5938 3.62679 21.7656 3.33583 21.8594C3.04487 21.9531 2.72794 22 2.38502 22ZM6.5 19.299C6.21943 19.299 5.95186 19.2496 5.69727 19.1506C5.44268 19.0516 5.21147 18.9032 5.00364 18.7053L4.44251 18.174L3.95931 18.6584C3.75148 18.8668 3.51508 19.0256 3.2501 19.135C2.98512 19.2444 2.70715 19.299 2.41619 19.299H2.01093L1.01336 15.4062C0.982186 15.2604 1.00557 15.1224 1.0835 14.9922C1.16144 14.862 1.27314 14.776 1.41862 14.7344L2.38502 14.4688V12.25C2.38502 11.9375 2.49413 11.6719 2.71235 11.4531C2.93057 11.2344 3.19555 11.125 3.50729 11.125H5.00364V10H7.99636V11.125H9.49271C9.80445 11.125 10.0694 11.2344 10.2877 11.4531C10.5059 11.6719 10.615 11.9375 10.615 12.25V14.4688L11.5814 14.7344C11.7269 14.776 11.8386 14.862 11.9165 14.9922C11.9944 15.1224 12.0178 15.2604 11.9866 15.4062L10.9891 19.299H10.5838C10.2928 19.299 10.0149 19.2444 9.7499 19.135C9.48492 19.0256 9.24852 18.8668 9.04069 18.6584L8.55749 18.174L7.99636 18.7053C7.78853 18.9032 7.55732 19.0516 7.30273 19.1506C7.04814 19.2496 6.78057 19.299 6.5 19.299ZM3.50729 14.1719L6.5 13.375L9.49271 14.1719V12.25H3.50729V14.1719Z" fill="#555555"/>
<path d="M19 22L15 18L16.4 16.6L18 18.15V6.85L16.4 8.4L15 7L19 3L23 7L21.6 8.4L20 6.85V18.15L21.6 16.6L23 18L19 22Z" fill="#555555"/>
<path d="M12 6H10V5H7V3L12 3V6ZM7 5L3 5L3 6H1L1 3L7 3V5Z" fill="#555555"/>
</svg>
