<svg xmlns="http://www.w3.org/2000/svg" width="18" height="18" viewBox="0 0 18 18">
  <g id="ico-map-setting" transform="translate(-56.254 -392.002)">
    <path id="패스_100" data-name="패스 100" d="M69.176,395.889v-2.6A1.318,1.318,0,0,0,67.833,392h-.521a1.317,1.317,0,0,0-1.341,1.284v2.6a4.013,4.013,0,0,0,0,7.557v5.27A1.318,1.318,0,0,0,67.312,410h.521a1.319,1.319,0,0,0,1.343-1.286v-5.27a4.013,4.013,0,0,0,0-7.557Zm-1.6,5.291a1.513,1.513,0,1,1,1.579-1.512A1.549,1.549,0,0,1,67.572,401.179Z" transform="translate(2.417)" fill="#424242"/>
    <path id="패스_101" data-name="패스 101" d="M62.122,398.558v-5.271A1.318,1.318,0,0,0,60.78,392h-.521a1.318,1.318,0,0,0-1.343,1.284v5.271a4.012,4.012,0,0,0,0,7.556v2.6A1.319,1.319,0,0,0,60.259,410h.521a1.319,1.319,0,0,0,1.341-1.286v-2.6a4.012,4.012,0,0,0,0-7.556Zm-1.6,5.289a1.513,1.513,0,1,1,1.579-1.512A1.549,1.549,0,0,1,60.52,403.847Z" transform="translate(0)" fill="#424242"/>
  </g>
</svg>
