<svg xmlns="http://www.w3.org/2000/svg" width="20" height="20" viewBox="0 0 20 20">
  <g id="ico-download-meta" transform="translate(-440 -393)">
    <path id="Cloud-download" d="M17.712,7.689a7.169,7.169,0,0,0-6.989-6.38A7.041,7.041,0,0,0,4.41,5.392,6.226,6.226,0,0,0,5.986,17.569h8.75A5.356,5.356,0,0,0,20,12.115,5.461,5.461,0,0,0,17.712,7.689ZM13.82,10.87l-3.391,3.393a.607.607,0,0,1-.859,0L6.18,10.87a.608.608,0,0,1,.43-1.037H8.786V6.953a1.214,1.214,0,1,1,2.429,0v2.88H13.39A.608.608,0,0,1,13.82,10.87Z" transform="translate(440 393.691)" fill="#424242" fill-rule="evenodd"/>
    <rect id="사각형_502" data-name="사각형 502" width="20" height="20" transform="translate(440 393)" fill="none"/>
  </g>
</svg>
