<svg xmlns="http://www.w3.org/2000/svg" width="16.02" height="16.02" viewBox="0 0 16.02 16.02">
  <g id="ico-close-popup" transform="translate(1.5 1.5)" fill="none" stroke-linecap="round" stroke-linejoin="round">
    <path d="M6.51,6.51,0,13.02,6.51,6.51,0,0,6.51,6.51,13.02,0,6.51,6.51l6.51,6.51Z" stroke="none"/>
    <path d="M 0 0 L 6.510249614715576 6.510009765625 L 0 13.02001953125 L 6.510249614715576 6.510009765625 L 0 0 M 13.02001953125 0 L 6.510249614715576 6.510009765625 L 13.02001953125 0 M 6.510249614715576 6.510009765625 L 13.02001953125 13.02001953125 L 6.510249614715576 6.510009765625 M 1.9073486328125e-06 -1.500002861022949 C 0.3838844299316406 -1.500002861022949 0.7677392959594727 -1.353569984436035 1.060639381408691 -1.060680389404297 L 6.510210514068604 4.388689994812012 L 11.95934009552002 -1.060640335083008 C 12.54512023925781 -1.646440505981445 13.49485969543457 -1.646459579467773 14.08065986633301 -1.060680389404297 C 14.66646003723145 -0.4749002456665039 14.66648006439209 0.4748401641845703 14.0806999206543 1.060639381408691 L 8.63153076171875 6.510009765625 L 14.0806999206543 11.95938014984131 C 14.66648006439209 12.54517936706543 14.66646003723145 13.4949197769165 14.08065986633301 14.0806999206543 C 13.49485969543457 14.66648006439209 12.5451192855835 14.66646003723145 11.95934009552002 14.08065986633301 L 6.510210514068604 8.631329536437988 L 1.060639381408691 14.0806999206543 C 0.4748392105102539 14.66647911071777 -0.4749011993408203 14.66646003723145 -1.060680389404297 14.08065986633301 C -1.64646053314209 13.49485969543457 -1.646440505981445 12.54512023925781 -1.060640335083008 11.95934009552002 L 4.388890266418457 6.510009765625 L -1.060640335083008 1.06067943572998 C -1.646440505981445 0.4748992919921875 -1.64646053314209 -0.4748401641845703 -1.060680389404297 -1.060640335083008 C -0.7677898406982422 -1.353540420532227 -0.383880615234375 -1.500002861022949 1.9073486328125e-06 -1.500002861022949 Z" stroke="none" fill="#103162"/>
  </g>
</svg>
