<svg xmlns="http://www.w3.org/2000/svg" width="12.25" height="14" viewBox="0 0 12.25 14">
  <path id="ico_calendar" d="M-2.078-4.375A.329.329,0,0,0-1.75-4.7V-5.8a.329.329,0,0,0-.328-.328H-3.172A.329.329,0,0,0-3.5-5.8V-4.7a.329.329,0,0,0,.328.328ZM.875-4.7V-5.8a.329.329,0,0,0-.328-.328H-.547A.329.329,0,0,0-.875-5.8V-4.7a.329.329,0,0,0,.328.328H.547A.329.329,0,0,0,.875-4.7ZM3.5-4.7V-5.8a.329.329,0,0,0-.328-.328H2.078A.329.329,0,0,0,1.75-5.8V-4.7a.329.329,0,0,0,.328.328H3.172A.329.329,0,0,0,3.5-4.7ZM.875-2.078V-3.172A.329.329,0,0,0,.547-3.5H-.547a.329.329,0,0,0-.328.328v1.094a.329.329,0,0,0,.328.328H.547A.329.329,0,0,0,.875-2.078Zm-2.625,0V-3.172A.329.329,0,0,0-2.078-3.5H-3.172a.329.329,0,0,0-.328.328v1.094a.329.329,0,0,0,.328.328h1.094A.329.329,0,0,0-1.75-2.078Zm5.25,0V-3.172A.329.329,0,0,0,3.172-3.5H2.078a.329.329,0,0,0-.328.328v1.094a.329.329,0,0,0,.328.328H3.172A.329.329,0,0,0,3.5-2.078ZM6.125-9.187A1.313,1.313,0,0,0,4.813-10.5H3.5v-1.422a.329.329,0,0,0-.328-.328H2.078a.329.329,0,0,0-.328.328V-10.5h-3.5v-1.422a.329.329,0,0,0-.328-.328H-3.172a.329.329,0,0,0-.328.328V-10.5H-4.812A1.313,1.313,0,0,0-6.125-9.187V.438A1.313,1.313,0,0,0-4.812,1.75H4.813A1.313,1.313,0,0,0,6.125.438ZM4.813.273a.165.165,0,0,1-.164.164h-9.3A.165.165,0,0,1-4.812.273V-7.875H4.813Z" transform="translate(6.125 12.25)" fill="#abafb3"/>
</svg>
