<svg xmlns="http://www.w3.org/2000/svg" width="16" height="16" viewBox="0 0 16 16">
  <g id="ico_layer_c_12" transform="translate(79.566 -10.388)">
    <path id="패스_988" data-name="패스 988" d="M-63.966,33.954a6.291,6.291,0,0,0-2.126.42,5.53,5.53,0,0,1-1.874.38,5.247,5.247,0,0,1-1.93-.418,3.845,3.845,0,0,0-3.34,0,5.245,5.245,0,0,1-1.929.418,5.534,5.534,0,0,1-1.874-.38,6.287,6.287,0,0,0-2.126-.42.4.4,0,0,0-.4.4.4.4,0,0,0,.4.4,5.542,5.542,0,0,1,1.874.38,6.287,6.287,0,0,0,2.126.42,6,6,0,0,0,2.2-.467,3.089,3.089,0,0,1,2.79,0,6,6,0,0,0,2.206.467,6.287,6.287,0,0,0,2.126-.42,5.542,5.542,0,0,1,1.874-.38.4.4,0,0,0,.4-.4A.4.4,0,0,0-63.966,33.954Z" transform="translate(0 -13.545)" fill="#fff"/>
    <path id="패스_988-2" data-name="패스 988" d="M-63.966,38.954a6.291,6.291,0,0,0-2.126.42,5.53,5.53,0,0,1-1.874.38,5.247,5.247,0,0,1-1.93-.418,3.845,3.845,0,0,0-3.34,0,5.245,5.245,0,0,1-1.929.418,5.534,5.534,0,0,1-1.874-.38,6.287,6.287,0,0,0-2.126-.42.4.4,0,0,0-.4.4.4.4,0,0,0,.4.4,5.542,5.542,0,0,1,1.874.38,6.287,6.287,0,0,0,2.126.42,6,6,0,0,0,2.2-.467,3.089,3.089,0,0,1,2.79,0,6,6,0,0,0,2.206.467,6.287,6.287,0,0,0,2.126-.42,5.542,5.542,0,0,1,1.874-.38.4.4,0,0,0,.4-.4A.4.4,0,0,0-63.966,38.954Z" transform="translate(0 -16.778)" fill="#fff"/>
    <g id="그룹_1106" data-name="그룹 1106" transform="translate(-79.105 13)">
      <path id="패스_1052" data-name="패스 1052" d="M-74.324,20.5a5.245,5.245,0,0,0,1.929-.418,3.845,3.845,0,0,1,3.34,0c.12.051.244.094.367.136l-1.749-3.149a.353.353,0,0,0-.309-.182.349.349,0,0,0-.131.025l-1.492.6-2.672-4.343a.354.354,0,0,0-.3-.168h-.03a.353.353,0,0,0-.3.221l-2.593,6.483a6.281,6.281,0,0,1,2.066.416A5.534,5.534,0,0,0-74.324,20.5Z" transform="translate(78.263 -13)" fill="#fff"/>
      <path id="패스_1053" data-name="패스 1053" d="M-45.945,29.172a6.29,6.29,0,0,1,1.516-.374l-.369-1.292a.7.7,0,0,0-.67-.506h-1.69a.7.7,0,0,0-.67.506l-.57,2a5.22,5.22,0,0,0,.58.049A5.534,5.534,0,0,0-45.945,29.172Z" transform="translate(58.958 -22.05)" fill="#fff"/>
    </g>
    <rect id="ico_layer_a_1" width="16" height="16" transform="translate(-79.566 10.388)" fill="none"/>
  </g>
</svg>
