<svg xmlns="http://www.w3.org/2000/svg" width="20" height="20" viewBox="0 0 20 20">
  <g id="ico_layer_view" transform="translate(-15 -15)">
    <rect id="사각형_192" data-name="사각형 192" width="20" height="20" transform="translate(15 15)" fill="none"/>
    <path id="패스_819" data-name="패스 819" d="M408.928,91.878h-14.1a2.948,2.948,0,0,0-2.948,2.948V102a2.948,2.948,0,0,0,2.948,2.948h5.438v1.728h-4.109a1,1,0,0,0-1,1v.658a1,1,0,0,0,1,1h11.623a1,1,0,0,0,1-1v-.658a1,1,0,0,0-1-1h-4.432v-1.728h5.585A2.948,2.948,0,0,0,411.876,102V94.826A2.948,2.948,0,0,0,408.928,91.878ZM407,101.163v.008l-4.68,1.91h0a1.17,1.17,0,0,1-.889,0h0l-4.679-1.91v-.008a.37.37,0,0,1,0-.729l.913-.375c1.436.588,3.391,1.386,3.414,1.392a2.334,2.334,0,0,0,.8.137,2.359,2.359,0,0,0,.794-.136c.023-.007,1.981-.806,3.415-1.393l.915.375a.37.37,0,0,1,0,.729Zm0-2.6v.008l-4.68,1.91h0a1.17,1.17,0,0,1-.889,0h0l-4.679-1.91v-.008a.37.37,0,0,1,0-.729l.913-.375c1.436.588,3.391,1.386,3.414,1.392a2.336,2.336,0,0,0,.8.139,2.361,2.361,0,0,0,.794-.137c.023-.007,1.981-.806,3.415-1.393l.915.375a.37.37,0,0,1,0,.729Zm0-2.6v.007l-4.68,1.91h0a1.17,1.17,0,0,1-.889,0h0l-4.679-1.91v-.007a.408.408,0,0,1-.3-.365.4.4,0,0,1,.309-.364l4.672-1.917h.008a1.163,1.163,0,0,1,.886,0h.01L407,95.237a.37.37,0,0,1,0,.729Z" transform="translate(-376.876 -75.608)" fill="#456074" fill-rule="evenodd"/>
  </g>
</svg>
