<svg xmlns="http://www.w3.org/2000/svg" width="20" height="20" viewBox="0 0 20 20">
  <g id="ico_tide" transform="translate(-15 -495)">
    <g id="그룹_135" data-name="그룹 135" transform="translate(9.306 89.006)">
      <g id="그룹_73" data-name="그룹 73" transform="translate(8.75 420.835)">
        <path id="패스_41" data-name="패스 41" d="M-524.37,1476.7a6.838,6.838,0,0,0-1.45-.575c-.269-.075-.528.189-.576.586a.755.755,0,0,0,.4.846,6.257,6.257,0,0,1,1.292.512.351.351,0,0,0,.169.043c.2,0,.394-.184.466-.48A.852.852,0,0,0-524.37,1476.7Z" transform="translate(537.93 -1475.929)" fill="#424242"/>
        <path id="패스_42" data-name="패스 42" d="M-533.98,1475.943a6.315,6.315,0,0,0-1.448.372,4.539,4.539,0,0,1-2.095.337,3.8,3.8,0,0,1-1.319-.346,4.072,4.072,0,0,0-1.676-.383,6.4,6.4,0,0,0-3.151.769.851.851,0,0,0-.3.93c.091.379.374.577.633.443a5.594,5.594,0,0,1,2.8-.686,3.4,3.4,0,0,1,1.422.327,4.542,4.542,0,0,0,1.535.4c.156.013.3.019.445.019a5.414,5.414,0,0,0,1.936-.394,5.667,5.667,0,0,1,1.295-.336c.273-.031.478-.382.457-.783S-533.7,1475.913-533.98,1475.943Z" transform="translate(544 -1475.922)" fill="#424242"/>
        <path id="패스_1426" data-name="패스 1426" d="M-537.09,1475.943a3.331,3.331,0,0,0-1,.372,2.287,2.287,0,0,1-1.444.337,2.027,2.027,0,0,1-.91-.346,2.132,2.132,0,0,0-1.156-.383,3.372,3.372,0,0,0-2.173.769,1.081,1.081,0,0,0-.208.93c.063.379.258.577.436.443a2.948,2.948,0,0,1,1.932-.686,1.78,1.78,0,0,1,.981.327,2.42,2.42,0,0,0,1.058.4,2.474,2.474,0,0,0,.307.019,2.774,2.774,0,0,0,1.335-.394,2.992,2.992,0,0,1,.893-.336c.188-.031.329-.382.315-.783S-536.9,1475.913-537.09,1475.943Z" transform="translate(544 -1478.922)" fill="#424242"/>
        <path id="패스_1427" data-name="패스 1427" d="M-537.09,1475.943a3.331,3.331,0,0,0-1,.372,2.287,2.287,0,0,1-1.444.337,2.027,2.027,0,0,1-.91-.346,2.132,2.132,0,0,0-1.156-.383,3.372,3.372,0,0,0-2.173.769,1.081,1.081,0,0,0-.208.93c.063.379.258.577.436.443a2.948,2.948,0,0,1,1.932-.686,1.78,1.78,0,0,1,.981.327,2.42,2.42,0,0,0,1.058.4,2.474,2.474,0,0,0,.307.019,2.774,2.774,0,0,0,1.335-.394,2.992,2.992,0,0,1,.893-.336c.188-.031.329-.382.315-.783S-536.9,1475.913-537.09,1475.943Z" transform="translate(544 -1481.922)" fill="#424242"/>
        <path id="패스_1428" data-name="패스 1428" d="M-537.09,1475.943a3.331,3.331,0,0,0-1,.372,2.287,2.287,0,0,1-1.444.337,2.027,2.027,0,0,1-.91-.346,2.132,2.132,0,0,0-1.156-.383,3.372,3.372,0,0,0-2.173.769,1.081,1.081,0,0,0-.208.93c.063.379.258.577.436.443a2.948,2.948,0,0,1,1.932-.686,1.78,1.78,0,0,1,.981.327,2.42,2.42,0,0,0,1.058.4,2.474,2.474,0,0,0,.307.019,2.774,2.774,0,0,0,1.335-.394,2.992,2.992,0,0,1,.893-.336c.188-.031.329-.382.315-.783S-536.9,1475.913-537.09,1475.943Z" transform="translate(544 -1484.922)" fill="#424242"/>
        <path id="패스_1429" data-name="패스 1429" d="M-537.09,1475.943a3.331,3.331,0,0,0-1,.372,2.287,2.287,0,0,1-1.444.337,2.027,2.027,0,0,1-.91-.346,2.132,2.132,0,0,0-1.156-.383,3.372,3.372,0,0,0-2.173.769,1.081,1.081,0,0,0-.208.93c.063.379.258.577.436.443a2.948,2.948,0,0,1,1.932-.686,1.78,1.78,0,0,1,.981.327,2.42,2.42,0,0,0,1.058.4,2.474,2.474,0,0,0,.307.019,2.774,2.774,0,0,0,1.335-.394,2.992,2.992,0,0,1,.893-.336c.188-.031.329-.382.315-.783S-536.9,1475.913-537.09,1475.943Z" transform="translate(544 -1487.868)" fill="#424242"/>
        <path id="패스_43" data-name="패스 43" d="M-530.439,1480.48a6.506,6.506,0,0,0-2.625-.77,5.329,5.329,0,0,0-2.364.39,4.515,4.515,0,0,1-2.094.338,3.829,3.829,0,0,1-1.319-.347,4.081,4.081,0,0,0-1.676-.383,6.361,6.361,0,0,0-3.151.77.848.848,0,0,0-.3.928c.091.379.374.576.633.443a5.642,5.642,0,0,1,2.8-.687,3.4,3.4,0,0,1,1.422.327,4.517,4.517,0,0,0,1.535.4c.156.014.3.019.445.019a5.411,5.411,0,0,0,1.936-.394,4.743,4.743,0,0,1,2.089-.352,5.8,5.8,0,0,1,2.334.685c.259.138.542-.06.635-.437A.851.851,0,0,0-530.439,1480.48Z" transform="translate(544 -1476.752)" fill="#424242"/>
      </g>
      <path id="패스_62" data-name="패스 62" d="M1002.6,103.4l-1.135.98V96.188l1.135.98a.55.55,0,0,0,.7,0,.387.387,0,0,0,0-.6l-1.979-1.709a.511.511,0,0,0-.161-.092.568.568,0,0,0-.379,0,.51.51,0,0,0-.16.092l-1.979,1.709a.387.387,0,0,0,0,.6.551.551,0,0,0,.7,0l1.135-.98v8.193l-1.135-.98a.551.551,0,0,0-.7,0,.387.387,0,0,0,0,.6l1.979,1.709a.51.51,0,0,0,.16.092.558.558,0,0,0,.379,0,.511.511,0,0,0,.161-.092l1.979-1.709a.387.387,0,0,0,0-.6A.551.551,0,0,0,1002.6,103.4Z" transform="translate(-981.279 314.175)" fill="#424242" stroke="#424242" stroke-width="0.3"/>
      <path id="패스_63" data-name="패스 63" d="M1370.889,346h-11.9a.991.991,0,0,0,0,1.983h11.9a.991.991,0,1,0,0-1.983Z" transform="translate(-1349.25 59.994)" fill="#424242"/>
    </g>
    <rect id="mask" width="20" height="20" transform="translate(15 495)" fill="none"/>
  </g>
</svg>
