<svg xmlns="http://www.w3.org/2000/svg" width="20" height="20" viewBox="0 0 20 20">
  <g id="ico_tool_slope" transform="translate(-15 -250)">
    <rect id="사각형_187" data-name="사각형 187" width="20" height="20" transform="translate(15 250)" fill="none"/>
    <g id="그룹_588" data-name="그룹 588" transform="translate(-71.247 152.619)">
      <path id="패스_824" data-name="패스 824" d="M104.382,113.95H88.112a1.849,1.849,0,0,1-1.784-1.3,1.8,1.8,0,0,1,.753-2.047l12.235-7.968a1.9,1.9,0,0,1,1.514-.243,1.855,1.855,0,0,1,1.186.951l4.036,7.969a1.786,1.786,0,0,1-.086,1.773A1.863,1.863,0,0,1,104.382,113.95Zm-4.046-9.79-12.218,7.973h0l-.008.006,16.272-.028ZM87.6,111.369h0Z" transform="translate(0 0.031)" fill="#111"/>
      <path id="패스_825" data-name="패스 825" d="M98.374,101.442a.936.936,0,0,0-.9-.661H92.329a.942.942,0,0,0-.835.5.906.906,0,0,0,.075.957l1.051,1.423L86.678,107.4a.907.907,0,0,0-.282,1.269.946.946,0,0,0,.789.422.958.958,0,0,0,.506-.146l10.291-6.471A.909.909,0,0,0,98.374,101.442Z" transform="translate(0 0)" fill="#111"/>
    </g>
  </g>
</svg>
