<svg xmlns="http://www.w3.org/2000/svg" width="26" height="26" viewBox="0 0 26 26">
  <g id="ico_sq_2" transform="translate(-1634 -92)">
    <rect id="ico_sq_2-2" data-name="ico_sq_2" width="26" height="26" rx="3" transform="translate(1634 92)" fill="#e5e7eb"/>
    <g id="그룹_614" data-name="그룹 614" transform="translate(1557.334 -387.354)">
      <path id="패스_837" data-name="패스 837" d="M83.585,501.6a4.243,4.243,0,0,0,1.8-.625,2.2,2.2,0,0,1,1.2-.39,1.849,1.849,0,0,1,1.128.39,3.385,3.385,0,0,0,1.949.636,3.311,3.311,0,0,0,1.948-.636,1.849,1.849,0,0,1,1.128-.39,2.226,2.226,0,0,1,1.2.39,4.108,4.108,0,0,0,1.8.625c.123.01.257.02.379.02a5.491,5.491,0,0,0,3.22-1.189.77.77,0,0,0,.175-1.077.779.779,0,0,0-1.077-.175,3.822,3.822,0,0,1-2.553.882,2.6,2.6,0,0,1-1.2-.441,3.653,3.653,0,0,0-1.948-.595,3.416,3.416,0,0,0-1.948.636,1.828,1.828,0,0,1-2.256,0,3.385,3.385,0,0,0-1.949-.636,3.508,3.508,0,0,0-1.948.595,2.8,2.8,0,0,1-1.2.441,3.823,3.823,0,0,1-2.553-.882.771.771,0,0,0-.9,1.251A5.351,5.351,0,0,0,83.585,501.6Z" transform="translate(0 -5.205)" fill="#283c50"/>
      <path id="패스_838" data-name="패스 838" d="M98.443,505.511a3.822,3.822,0,0,1-2.553.882,2.6,2.6,0,0,1-1.2-.441,3.652,3.652,0,0,0-1.948-.595,3.411,3.411,0,0,0-1.948.636,1.827,1.827,0,0,1-2.256,0,3.38,3.38,0,0,0-1.949-.636,3.507,3.507,0,0,0-1.948.595,2.8,2.8,0,0,1-1.2.441,3.823,3.823,0,0,1-2.553-.882.771.771,0,1,0-.9,1.251,5.351,5.351,0,0,0,3.6,1.169,4.235,4.235,0,0,0,1.8-.625,2.2,2.2,0,0,1,1.2-.39,1.853,1.853,0,0,1,1.128.39,3.385,3.385,0,0,0,1.949.636,3.31,3.31,0,0,0,1.948-.636,1.853,1.853,0,0,1,1.128-.39,2.226,2.226,0,0,1,1.2.39,4.108,4.108,0,0,0,1.8.625c.123.01.257.021.379.021a5.492,5.492,0,0,0,3.22-1.19.771.771,0,1,0-.9-1.251Z" transform="translate(0 -7.425)" fill="#283c50"/>
      <g id="그룹_611" data-name="그룹 611" transform="translate(82.212 484.181)">
        <path id="패스_839" data-name="패스 839" d="M83.587,484.181H87.32c2.532,0,4.274,1.439,4.274,3.787s-1.742,3.787-4.274,3.787H83.587Zm3.625,5.583a1.8,1.8,0,1,0,0-3.592H86.141v3.592Z" transform="translate(-83.587 -484.181)" fill="#283c50"/>
        <path id="패스_840" data-name="패스 840" d="M97.344,484.181H99.9v5.594h3.419v1.98H97.344Z" transform="translate(-88.41 -484.181)" fill="#283c50"/>
      </g>
    </g>
  </g>
</svg>
