<svg xmlns="http://www.w3.org/2000/svg" width="16" height="16" viewBox="0 0 16 16">
  <g id="ico_layer_c_03_on" transform="translate(-625 -98)">
    <g id="그룹_1243" data-name="그룹 1243" transform="translate(1290.817 75.892)">
      <path id="패스_976" data-name="패스 976" d="M-635.325,23.656-637.474,36.4a.487.487,0,0,0,.481.568h5.788a.487.487,0,0,0,.481-.568l-2.149-12.742a.487.487,0,0,0-.481-.406h-1.49A.487.487,0,0,0-635.325,23.656Z" transform="translate(-23.654)" fill="#eee"/>
      <g id="그룹_1047" data-name="그룹 1047" transform="translate(-665.817 31.637)">
        <path id="사각형_544" data-name="사각형 544" d="M.165,0h0A.165.165,0,0,1,.331.165V2.148a0,0,0,0,1,0,0H0a0,0,0,0,1,0,0V.165A.165.165,0,0,1,.165,0Z" transform="translate(0.713 0)" fill="#eee"/>
        <path id="사각형_545" data-name="사각형 545" d="M.165,0h0A.165.165,0,0,1,.331.165V2.148a0,0,0,0,1,0,0H0a0,0,0,0,1,0,0V.165A.165.165,0,0,1,.165,0Z" transform="translate(15.008 0)" fill="#eee"/>
        <g id="그룹_1046" data-name="그룹 1046" transform="translate(0 1.818)">
          <g id="그룹_1045" data-name="그룹 1045">
            <path id="패스_977" data-name="패스 977" d="M-665.1,85.224l-.7,1.639c-.093.22.1.451.378.451h15.2c.267,0,.459-.215.385-.431l-.562-1.639A.4.4,0,0,0-650.78,85h-13.94A.4.4,0,0,0-665.1,85.224Z" transform="translate(665.817 -85)" fill="#eee"/>
            <path id="사각형_546" data-name="사각형 546" d="M.165,0h0A.165.165,0,0,1,.331.165V2.148a0,0,0,0,1,0,0H0a0,0,0,0,1,0,0V.165A.165.165,0,0,1,.165,0Z" transform="translate(0 0.165)" fill="#eee"/>
          </g>
          <path id="사각형_547" data-name="사각형 547" d="M.165,0h0A.165.165,0,0,1,.331.165V2.148a0,0,0,0,1,0,0H0a0,0,0,0,1,0,0V.165A.165.165,0,0,1,.165,0Z" transform="translate(15.669 0.165)" fill="#eee"/>
        </g>
      </g>
      <g id="그룹_1050" data-name="그룹 1050" transform="translate(-663.999 27.01)">
        <rect id="사각형_548" data-name="사각형 548" width="0.255" height="1.805" rx="0.128" transform="translate(0.551)" fill="#eee"/>
        <path id="사각형_549" data-name="사각형 549" d="M.128,0h0A.128.128,0,0,1,.255.128V1.8a0,0,0,0,1,0,0H0a0,0,0,0,1,0,0V.128A.128.128,0,0,1,.128,0Z" transform="translate(11.598)" fill="#eee"/>
        <g id="그룹_1049" data-name="그룹 1049" transform="translate(0 1.527)">
          <g id="그룹_1048" data-name="그룹 1048">
            <path id="패스_978" data-name="패스 978" d="M-654.261,55.428-654.8,56.8a.288.288,0,0,0,.292.379h11.744a.289.289,0,0,0,.3-.362l-.434-1.376a.307.307,0,0,0-.3-.2h-10.772A.31.31,0,0,0-654.261,55.428Z" transform="translate(654.817 -55.24)" fill="#eee"/>
            <path id="사각형_550" data-name="사각형 550" d="M.128,0h0A.128.128,0,0,1,.255.128V1.8a0,0,0,0,1,0,0H0a0,0,0,0,1,0,0V.128A.128.128,0,0,1,.128,0Z" transform="translate(0 0.139)" fill="#eee"/>
          </g>
          <path id="사각형_551" data-name="사각형 551" d="M.128,0h0A.128.128,0,0,1,.255.128V1.8a0,0,0,0,1,0,0H0a0,0,0,0,1,0,0V.128A.128.128,0,0,1,.128,0Z" transform="translate(12.109 0.139)" fill="#eee"/>
        </g>
      </g>
      <g id="그룹_1053" data-name="그룹 1053" transform="translate(-661.851 23.374)">
        <path id="사각형_552" data-name="사각형 552" d="M.083,0h0A.083.083,0,0,1,.167.083V1.289a0,0,0,0,1,0,0H0a0,0,0,0,1,0,0V.083A.083.083,0,0,1,.083,0Z" transform="translate(0.36 0)" fill="#eee"/>
        <path id="사각형_553" data-name="사각형 553" d="M.083,0h0A.083.083,0,0,1,.167.083V1.289a0,0,0,0,1,0,0H0a0,0,0,0,1,0,0V.083A.083.083,0,0,1,.083,0Z" transform="translate(7.568 0)" fill="#eee"/>
        <g id="그룹_1052" data-name="그룹 1052" transform="translate(0 1.091)">
          <g id="그룹_1051" data-name="그룹 1051">
            <path id="패스_979" data-name="패스 979" d="M-641.455,30.734l-.351.983a.2.2,0,0,0,.19.271h7.663a.2.2,0,0,0,.194-.259l-.283-.983a.2.2,0,0,0-.194-.146h-7.029A.2.2,0,0,0-641.455,30.734Z" transform="translate(641.817 -30.6)" fill="#eee"/>
            <path id="사각형_554" data-name="사각형 554" d="M.083,0h0A.083.083,0,0,1,.167.083V1.289a0,0,0,0,1,0,0H0a0,0,0,0,1,0,0V.083A.083.083,0,0,1,.083,0Z" transform="translate(0 0.099)" fill="#eee"/>
          </g>
          <path id="사각형_555" data-name="사각형 555" d="M.083,0h0A.083.083,0,0,1,.167.083V1.289a0,0,0,0,1,0,0H0a0,0,0,0,1,0,0V.083A.083.083,0,0,1,.083,0Z" transform="translate(7.901 0.099)" fill="#eee"/>
        </g>
      </g>
    </g>
    <rect id="사각형_580" data-name="사각형 580" width="16" height="16" transform="translate(625 98)" fill="none"/>
  </g>
</svg>
