<svg xmlns="http://www.w3.org/2000/svg" width="20" height="20" viewBox="0 0 20 20">
  <g id="ico_tools_share" transform="translate(-339.607 -108.623)">
    <g id="그룹_1386" data-name="그룹 1386">
      <circle id="타원_22" data-name="타원 22" cx="3.5" cy="3.5" r="3.5" transform="translate(351.607 108.623)" fill="#4d4d4d"/>
      <circle id="타원_23" data-name="타원 23" cx="4" cy="4" r="4" transform="translate(340.607 115.623)" fill="#4d4d4d"/>
      <circle id="타원_24" data-name="타원 24" cx="3.5" cy="3.5" r="3.5" transform="translate(351.607 121.623)" fill="#4d4d4d"/>
      <g id="그룹_1385" data-name="그룹 1385">
        <circle id="타원_25" data-name="타원 25" cx="3" cy="3" r="3" transform="translate(341.607 116.623)" fill="none"/>
        <circle id="타원_26" data-name="타원 26" cx="2.5" cy="2.5" r="2.5" transform="translate(352.607 109.623)" fill="none"/>
        <circle id="타원_27" data-name="타원 27" cx="2.5" cy="2.5" r="2.5" transform="translate(352.607 122.623)" fill="none"/>
        <path id="패스_547" data-name="패스 547" d="M355.107,121.623a3.492,3.492,0,0,0-2.959,1.651l-3.9-2.015a3.924,3.924,0,0,0,.011-3.251l4.21-3.609a3.453,3.453,0,1,0-.549-.845l-4.195,3.6a4,4,0,1,0-.01,4.961l4.033,2.083a3.447,3.447,0,0,0-.142.93,3.5,3.5,0,1,0,3.5-3.5Zm0-12a2.5,2.5,0,1,1-2.5,2.5A2.5,2.5,0,0,1,355.107,109.623Zm-10.5,13a3,3,0,1,1,3-3A3,3,0,0,1,344.607,122.623Zm10.5,5a2.5,2.5,0,1,1,2.5-2.5A2.5,2.5,0,0,1,355.107,127.623Z" fill="#4d4d4d"/>
      </g>
    </g>
    <rect id="mask" width="20" height="20" transform="translate(339.607 108.623)" fill="none"/>
  </g>
</svg>
