<svg xmlns="http://www.w3.org/2000/svg" width="20" height="20" viewBox="0 0 20 20">
  <g id="ico_tool_search" transform="translate(-6.5 -127.673)">
    <rect id="사각형_189" data-name="사각형 189" width="20" height="20" transform="translate(6.5 127.673)" fill="none"/>
    <path id="Search" d="M122.89,113.924A6.358,6.358,0,0,0,113.01,115a6.429,6.429,0,0,0,.067,7.022,6.357,6.357,0,0,0,8.342,2.077l3.821,3.656a1.05,1.05,0,0,0,1.471-.018l.981-.986a1.067,1.067,0,0,0,0-1.5l-3.706-3.737A6.444,6.444,0,0,0,122.89,113.924ZM121,121.088a3.684,3.684,0,0,1-5.225,0,3.739,3.739,0,0,1,0-5.257,3.684,3.684,0,0,1,5.225,0A3.741,3.741,0,0,1,121,121.088Z" transform="translate(-103.5 17.627)" fill="#111" fill-rule="evenodd"/>
  </g>
</svg>
