<svg xmlns="http://www.w3.org/2000/svg" width="16.001" height="16" viewBox="0 0 16.001 16">
  <g id="ico_layer_f_02_on" transform="translate(-1075.999 -936)">
    <g id="Group_1504" data-name="Group 1504" transform="translate(1075.999 937)">
      <path id="Path_1033" data-name="Path 1033" d="M1983.423,1392.644c-3.078,0-4.2-1.712-3.793-3.357a4.11,4.11,0,0,1,2.578-2.6l.013-.027a1.786,1.786,0,0,1-1.026-2.157c.391-1.591,2.025-3.047,4.968-3.047s3.914,1.443,3.523,3.047a3.53,3.53,0,0,1-2.16,2.157l-.013.027a2.1,2.1,0,0,1,1.363,2.6C1988.471,1390.932,1986.5,1392.644,1983.423,1392.644Zm1.242-5.055c-1.755,0-2.848.876-3.051,1.672-.148.607.338,1.6,2.241,1.6s2.9-1,3.051-1.6C1987.108,1388.465,1986.433,1387.589,1984.664,1387.589Zm1.093-4.341c-1.809,0-2.47.8-2.605,1.335-.122.5.257,1.375,1.917,1.375s2.483-.876,2.6-1.375C1987.81,1384.043,1987.567,1383.248,1985.758,1383.248Z" transform="translate(-1979.55 -1381.455)" fill="#fff"/>
      <path id="Path_1034" data-name="Path 1034" d="M2025.951,1424.5l-1.155.351a1.853,1.853,0,0,0-1.33,1.3l-.143.117h4.042l-.276,1.1h-5.114l.285-1.245a3.353,3.353,0,0,1,2.41-2.357l.979-.3c1.038-.318,1.339-.627,1.431-1,.1-.4-.042-.844-1.071-.844a2.671,2.671,0,0,0-1.95.92l-.67-.844a4.215,4.215,0,0,1,2.9-1.179c1.749,0,2.268.961,2.026,1.948C2028.085,1423.386,2027.365,1424.063,2025.951,1424.5Z" transform="translate(-2012.568 -1414.194)" fill="#fff"/>
    </g>
    <rect id="ico_layer_a_1" width="16" height="16" rx="4" transform="translate(1076 936)" fill="none"/>
  </g>
</svg>
