<svg xmlns="http://www.w3.org/2000/svg" width="16" height="16" viewBox="0 0 16 16">
  <g id="ico_layer_c_07_2" transform="translate(-625 -98)">
    <rect id="ico_layer_a_1" width="16" height="16" rx="4" transform="translate(625 98)" fill="none"/>
    <g id="Group_1534" data-name="Group 1534" transform="translate(2.676 1.053)">
      <g id="그룹_1033" data-name="그룹 1033" transform="translate(622.324 100.785)">
        <path id="사각형_542" data-name="사각형 542" d="M-266.133-305.017h12.987v3.394h-12.987a.705.705,0,0,1-.7-.7v-1.984A.705.705,0,0,1-266.133-305.017Z" transform="translate(266.838 309.951)" fill="#424242"/>
        <ellipse id="타원_104" data-name="타원 104" cx="0.542" cy="1.697" rx="0.542" ry="1.697" transform="translate(13.149 4.934)" fill="#b7b7b7"/>
        <rect id="Rectangle_681" data-name="Rectangle 681" width="3.761" height="3.394" transform="translate(0 4.93)" fill="#424242"/>
        <g id="그룹_1035" data-name="그룹 1035" transform="translate(0.629 4.93)">
          <path id="패스_961" data-name="패스 961" d="M-265.945-301.628a10.642,10.642,0,0,1,1.121-3.394h.615a8.879,8.879,0,0,0-1.121,3.394Z" transform="translate(265.945 305.022)" fill="#d5bf2d"/>
          <path id="패스_962" data-name="패스 962" d="M-263.5-301.628a10.643,10.643,0,0,1,1.121-3.394h.615a8.88,8.88,0,0,0-1.121,3.394Z" transform="translate(265.224 305.022)" fill="#d5bf2d"/>
          <path id="패스_963" data-name="패스 963" d="M-261.04-301.628a10.642,10.642,0,0,1,1.121-3.394h.615a8.879,8.879,0,0,0-1.121,3.394Z" transform="translate(264.497 305.022)" fill="#d5bf2d"/>
          <path id="패스_964" data-name="패스 964" d="M-258.59-301.628a10.643,10.643,0,0,1,1.121-3.394h.615a8.878,8.878,0,0,0-1.123,3.394Z" transform="translate(263.773 305.022)" fill="#d5bf2d"/>
          <path id="패스_965" data-name="패스 965" d="M-256.141-301.628a10.641,10.641,0,0,1,1.121-3.394h.615a8.879,8.879,0,0,0-1.121,3.394Z" transform="translate(263.05 305.022)" fill="#d5bf2d"/>
          <path id="패스_966" data-name="패스 966" d="M-253.677-301.628a10.643,10.643,0,0,1,1.121-3.394h.615a8.88,8.88,0,0,0-1.121,3.394Z" transform="translate(262.323 305.022)" fill="#d5bf2d"/>
          <path id="패스_967" data-name="패스 967" d="M-251.243-301.628a10.643,10.643,0,0,1,1.121-3.394h.615a8.88,8.88,0,0,0-1.121,3.394Z" transform="translate(261.604 305.022)" fill="#d5bf2d"/>
        </g>
        <rect id="Rectangle_680" data-name="Rectangle 680" width="3.761" height="3.394" transform="translate(0 0)" fill="#424242"/>
      </g>
      <g id="그룹_1034" data-name="그룹 1034" transform="translate(622.497 100.781)">
        <path id="사각형_542-2" data-name="사각형 542-2" d="M-261.133-311.017h12.987v3.394h-12.987a.705.705,0,0,1-.7-.7v-1.984A.7.7,0,0,1-261.133-311.017Z" transform="translate(262.945 311.021)" fill="#424242"/>
        <ellipse id="타원_104-2" data-name="타원 104-2" cx="0.542" cy="1.697" rx="0.542" ry="1.697" transform="translate(14.257 0.004)" fill="#b7b7b7"/>
        <g id="Group_1038" data-name="Group 1038" transform="translate(0)">
          <path id="패스_961-2" data-name="패스 961-2" d="M-260.945-307.628a10.644,10.644,0,0,1,1.121-3.394h.615a8.881,8.881,0,0,0-1.121,3.394Z" transform="translate(262.682 311.022)" fill="#d5bf2d"/>
          <path id="패스_961-2-2" data-name="패스 961-2" d="M-260.945-307.628a10.644,10.644,0,0,1,1.121-3.394h.615a8.881,8.881,0,0,0-1.121,3.394Z" transform="translate(260.945 311.022)" fill="#d5bf2d"/>
          <path id="패스_962-2" data-name="패스 962-2" d="M-258.5-307.628a10.644,10.644,0,0,1,1.121-3.394h.615a8.88,8.88,0,0,0-1.121,3.394Z" transform="translate(261.961 311.022)" fill="#d5bf2d"/>
          <path id="패스_963-2" data-name="패스 963-2" d="M-256.04-307.628a10.643,10.643,0,0,1,1.121-3.394h.615a8.881,8.881,0,0,0-1.121,3.394Z" transform="translate(261.234 311.022)" fill="#d5bf2d"/>
          <path id="패스_964-2" data-name="패스 964-2" d="M-253.591-307.628a10.644,10.644,0,0,1,1.121-3.394h.615a8.878,8.878,0,0,0-1.123,3.394Z" transform="translate(260.511 311.022)" fill="#d5bf2d"/>
          <path id="패스_965-2" data-name="패스 965-2" d="M-251.141-307.628a10.644,10.644,0,0,1,1.121-3.394h.615a8.878,8.878,0,0,0-1.121,3.394Z" transform="translate(259.788 311.022)" fill="#d5bf2d"/>
          <path id="패스_966-2" data-name="패스 966-2" d="M-248.678-307.628a10.642,10.642,0,0,1,1.121-3.394h.615a8.879,8.879,0,0,0-1.121,3.394Z" transform="translate(259.06 311.022)" fill="#d5bf2d"/>
          <path id="패스_967-2" data-name="패스 967-2" d="M-246.243-307.628a10.642,10.642,0,0,1,1.121-3.394h.615a8.88,8.88,0,0,0-1.121,3.394Z" transform="translate(258.341 311.022)" fill="#d5bf2d"/>
        </g>
      </g>
    </g>
  </g>
</svg>
