<svg xmlns="http://www.w3.org/2000/svg" width="16" height="16" viewBox="0 0 16 16">
  <g id="ico_layer_c_08_2_on" transform="translate(-625 -98)">
    <rect id="ico_layer_a_1" width="16" height="16" transform="translate(625 98)" fill="none"/>
    <path id="Path_1749" data-name="Path 1749" d="M16.993,6.763a.616.616,0,0,0,.615-.615V5.327c0-.011-.006-.02-.006-.03a.623.623,0,0,0-.033-.16c-.007-.02-.008-.041-.016-.06a.614.614,0,0,0-.122-.181c-.011-.011-.027-.018-.039-.029a.619.619,0,0,0-.124-.091L12.345,2.315c-.006,0-.012,0-.018,0a.562.562,0,0,0-.124-.033.547.547,0,0,0-.112-.023c-.007,0-.013,0-.021,0H8.788c-.007,0-.012,0-.019,0a.567.567,0,0,0-.116.023.653.653,0,0,0-.122.033l-.018,0L3.591,4.776a.618.618,0,0,0-.124.091c-.012.011-.028.017-.039.029a.614.614,0,0,0-.122.181c-.008.019-.01.04-.016.06a.623.623,0,0,0-.033.16c0,.01-.006.019-.006.03v.821a.615.615,0,1,0,1.231,0V5.942H8.173V7.408L3.591,9.7a.618.618,0,0,0-.124.091c-.012.011-.028.017-.039.029A.614.614,0,0,0,3.3,10c-.008.019-.01.04-.016.06a.623.623,0,0,0-.033.16c0,.01-.006.019-.006.03v.821a.615.615,0,1,0,1.231,0v-.205H7.934L5.743,17.44a.616.616,0,0,0,.953.687l3.733-2.8,3.733,2.8a.616.616,0,0,0,.369.123.617.617,0,0,0,.584-.81l-2.192-6.575h3.453v.205a.615.615,0,1,0,1.231,0V10.25c0-.011-.006-.02-.006-.03a.623.623,0,0,0-.033-.16c-.007-.02-.008-.041-.016-.06a.614.614,0,0,0-.122-.181c-.011-.011-.027-.018-.039-.029a.618.618,0,0,0-.124-.091L12.686,7.408V5.942h3.692v.205A.616.616,0,0,0,16.993,6.763ZM11.455,3.481V4.712H9.4V3.481ZM6.472,4.712l1.7-.851v.851Zm5.154,6.154.54,1.62-1.737,1.3-1.737-1.3.54-1.62Zm-.171-1.231H9.4V8.4h2.051ZM8.173,8.784v.851h-1.7ZM7.534,15.96l.748-2.243,1.122.841Zm3.921-1.4,1.122-.841.748,2.243Zm2.932-4.923h-1.7V8.784ZM11.455,7.173H9.4V5.942h2.051Zm1.231-2.462V3.861l1.7.851Z" transform="translate(622.571 95.75)" fill="#fff"/>
  </g>
</svg>
