<svg xmlns="http://www.w3.org/2000/svg" width="16.001" height="16" viewBox="0 0 16.001 16">
  <g id="ico_layer_d_03_on" transform="translate(-625 -98)">
    <rect id="ico_layer_a_1" width="16" height="16" transform="translate(625 98)" fill="none"/>
    <g id="그룹_1259" data-name="그룹 1259" transform="translate(-610.025 -166.045)">
      <path id="패스_1042" data-name="패스 1042" d="M1235.426,326.081a5.218,5.218,0,0,1,1.874.408,5.915,5.915,0,0,0,2.126.451,5.653,5.653,0,0,0,2.2-.5,2.9,2.9,0,0,1,2.79,0,5.653,5.653,0,0,0,2.206.5,5.916,5.916,0,0,0,2.126-.451,5.218,5.218,0,0,1,1.874-.408.43.43,0,0,0,0-.858,5.918,5.918,0,0,0-2.126.451,5.212,5.212,0,0,1-1.874.408,4.942,4.942,0,0,1-1.93-.449,3.61,3.61,0,0,0-3.34,0,4.943,4.943,0,0,1-1.93.449,5.212,5.212,0,0,1-1.874-.408,5.918,5.918,0,0,0-2.126-.451.43.43,0,0,0,0,.858Z" transform="translate(0 -50.601)" fill="#eee"/>
      <path id="패스_1043" data-name="패스 1043" d="M1250.626,337.083a5.916,5.916,0,0,0-2.126.451,5.215,5.215,0,0,1-1.874.408,4.941,4.941,0,0,1-1.93-.449,3.611,3.611,0,0,0-3.34,0,4.941,4.941,0,0,1-1.93.449,5.215,5.215,0,0,1-1.874-.408,5.916,5.916,0,0,0-2.126-.451.43.43,0,0,0,0,.858,5.22,5.22,0,0,1,1.874.408,5.916,5.916,0,0,0,2.126.451,5.653,5.653,0,0,0,2.2-.5,2.9,2.9,0,0,1,2.79,0,5.653,5.653,0,0,0,2.206.5,5.917,5.917,0,0,0,2.126-.451,5.221,5.221,0,0,1,1.874-.408.43.43,0,0,0,0-.858Z" transform="translate(0 -60.744)" fill="#eee"/>
      <path id="패스_1044" data-name="패스 1044" d="M1250.325,274.622a4.941,4.941,0,0,0,1.93-.449,3.61,3.61,0,0,1,3.34,0,4.941,4.941,0,0,0,1.93.449,5.215,5.215,0,0,0,1.874-.408,5.965,5.965,0,0,1,.824-.272.865.865,0,0,0-.018-.1l-1.613-6.76a.813.813,0,0,0-.442-.554l-.876-.4a.721.721,0,0,0-.548-.024l-7.183,2.593a.8.8,0,0,0-.486.526l-1.406,4.627a.882.882,0,0,0-.023.1,5.97,5.97,0,0,1,.827.273A5.215,5.215,0,0,0,1250.325,274.622Zm1.252-.689a.139.139,0,0,1-.134.135h-.01a.142.142,0,0,1-.125-.154,11.664,11.664,0,0,0-.685-3.378.148.148,0,0,1,.078-.187.132.132,0,0,1,.174.084A11.706,11.706,0,0,1,1251.577,273.933Zm5.377-4.846a17.967,17.967,0,0,0-1.08,4.367.152.152,0,0,1-.134.155h-.012a.164.164,0,0,1-.122-.186,18.033,18.033,0,0,1,1.108-4.489.124.124,0,0,1,.181-.077A.194.194,0,0,1,1256.954,269.087Zm-7.449.481a.131.131,0,0,1,.178-.074,2.236,2.236,0,0,0,.911.247c.247-.044,4.759-1.422,7.11-2.144a.134.134,0,0,1,.167.1.146.146,0,0,1-.092.179c-.278.085-6.816,2.093-7.14,2.151a.607.607,0,0,1-.107.009,2.871,2.871,0,0,1-.957-.277A.149.149,0,0,1,1249.5,269.567Z" transform="translate(-10.899)" fill="#eee"/>
    </g>
  </g>
</svg>
