<svg xmlns="http://www.w3.org/2000/svg" width="16.001" height="16" viewBox="0 0 16.001 16">
  <g id="ico_layer_d_01_on" transform="translate(-1049.999 -916)">
    <g id="ico_layer_c_07" transform="translate(425 818)">
      <rect id="ico_layer_a_1" width="16" height="16" rx="4" transform="translate(625 98)" fill="none"/>
      <path id="Line_74" data-name="Line 74" d="M0,14.5a.5.5,0,0,1-.354-.146.5.5,0,0,1,0-.707l14-14a.5.5,0,0,1,.707,0,.5.5,0,0,1,0,.707l-14,14A.5.5,0,0,1,0,14.5Z" transform="translate(626 99)" fill="#fff"/>
    </g>
    <path id="Intersection_6" data-name="Intersection 6" d="M6538.747-2289.438a.866.866,0,0,1-.7-.347l-.608-.836a.771.771,0,0,1,.12-1.041l1.694-1.5a.881.881,0,0,1,.834-.179l.606.182a.808.808,0,0,1,.591.747l.028,1.27a.8.8,0,0,1-.445.723l-1.715.879A.888.888,0,0,1,6538.747-2289.438Zm-1.14-1.825a.059.059,0,0,0,.026.08,2.005,2.005,0,0,1,1.04,1.5.06.06,0,0,0,.059.054h.007a.06.06,0,0,0,.054-.064,2.09,2.09,0,0,0-1.106-1.595.073.073,0,0,0-.028-.007A.06.06,0,0,0,6537.607-2291.263Zm6.135,1.656-1.708-.821a.914.914,0,0,1-.53-.8l-.023-1.089a.923.923,0,0,1,.691-.9l.524-.148a1.01,1.01,0,0,1,.935.205l1.62,1.411a.889.889,0,0,1,.312.676v0a.876.876,0,0,1-.14.468l-.412.646a.98.98,0,0,1-.832.442A1.009,1.009,0,0,1,6543.743-2289.607Zm1.485-1.761a2.01,2.01,0,0,0-1.157,1.6.063.063,0,0,0,.059.064h.007a.064.064,0,0,0,.064-.054,1.88,1.88,0,0,1,1.078-1.5.058.058,0,0,0,.033-.079.061.061,0,0,0-.057-.034A.065.065,0,0,0,6545.228-2291.368Zm-4.042-1.758-.982-.3a.585.585,0,0,1-.429-.632l.424-3.144a.612.612,0,0,1,.616-.513H6542a.609.609,0,0,1,.614.508l.448,3.137a.587.587,0,0,1-.437.641l-1.07.3a.641.641,0,0,1-.177.025A.671.671,0,0,1,6541.187-2293.126Zm-.581-4.306a.059.059,0,0,0,.046.072,4.02,4.02,0,0,0,.8.076,3.492,3.492,0,0,0,.749-.076.06.06,0,0,0,.046-.072.059.059,0,0,0-.072-.046,3.963,3.963,0,0,1-1.495,0l-.013,0A.061.061,0,0,0,6540.605-2297.431Z" transform="translate(-5479.6 3221.437)" fill="#fff"/>
    <path id="Intersection_5" data-name="Intersection 5" d="M6533.795-2293a.614.614,0,0,0-.871,0l-.682.682-.243-.243v-.557l.4-.4a.617.617,0,0,0,0-.871l-.4-.4v-1.042l.925.923a.614.614,0,0,0,.871,0l1.168-1.167a.617.617,0,0,0,0-.871l-1.168-1.168a.613.613,0,0,0-.436-.181.618.618,0,0,0-.436.181l-.925.927v-1.043l.4-.4a.619.619,0,0,0,0-.872l-.4-.4v-.557l.243-.243.682.682a.617.617,0,0,0,.871,0l1.168-1.166a.617.617,0,0,0,0-.871l-.682-.682.242-.243h.56l.4.4a.616.616,0,0,0,.871,0l.4-.4h1.043l-.923.925a.617.617,0,0,0,0,.871l1.167,1.166a.618.618,0,0,0,.872,0l1.167-1.166a.617.617,0,0,0,0-.871l-.923-.925h1.043l.4.4a.616.616,0,0,0,.871,0l.4-.4h.56l.241.243-.68.682a.614.614,0,0,0,0,.871l.885.885-.521.522-.888-.886a.611.611,0,0,0-.434-.179.62.62,0,0,0-.437.179l-1.166,1.166a.618.618,0,0,0,0,.872l.886.886-.521.521-.885-.886a.618.618,0,0,0-.435-.181.621.621,0,0,0-.437.181l-1.167,1.168a.617.617,0,0,0,0,.871l.886.886-.521.522-.885-.885a.607.607,0,0,0-.435-.181.608.608,0,0,0-.436.181l-1.166,1.166a.617.617,0,0,0,0,.871l.885.885-.522.522Zm1.69-7.68-1.166,1.166a.619.619,0,0,0,0,.872l1.166,1.166a.616.616,0,0,0,.871,0l1.167-1.166a.619.619,0,0,0,0-.872l-1.167-1.166a.612.612,0,0,0-.435-.179A.614.614,0,0,0,6535.485-2300.684Z" transform="translate(-5482 3219)" fill="#fff"/>
    <ellipse id="Ellipse_181" data-name="Ellipse 181" cx="0.664" cy="0.664" rx="0.664" ry="0.664" transform="translate(1053.256 916.696)" fill="#aaa"/>
    <ellipse id="Ellipse_182" data-name="Ellipse 182" cx="0.664" cy="0.664" rx="0.664" ry="0.664" transform="translate(1050.696 919.255)" fill="#aaa"/>
    <ellipse id="Ellipse_183" data-name="Ellipse 183" cx="0.664" cy="0.664" rx="0.664" ry="0.664" transform="translate(1058.375 916.696)" fill="#aaa"/>
    <ellipse id="Ellipse_184" data-name="Ellipse 184" cx="0.664" cy="0.664" rx="0.664" ry="0.664" transform="translate(1055.815 919.255)" fill="#aaa"/>
    <ellipse id="Ellipse_185" data-name="Ellipse 185" cx="0.664" cy="0.664" rx="0.664" ry="0.664" transform="translate(1053.256 921.815)" fill="#aaa"/>
    <ellipse id="Ellipse_186" data-name="Ellipse 186" cx="0.664" cy="0.664" rx="0.664" ry="0.664" transform="translate(1050.696 924.374)" fill="#aaa"/>
  </g>
</svg>
