<svg xmlns="http://www.w3.org/2000/svg" width="16" height="16.022" viewBox="0 0 16 16.022">
  <g id="ico_layer_e_02_on" transform="translate(-57.25 -123.767)">
    <g id="그룹_1103" data-name="그룹 1103" transform="translate(57.25 127.305)">
      <path id="패스_1045" data-name="패스 1045" d="M71.1,145.785a.536.536,0,0,0-.719-.235,5.811,5.811,0,0,1-2.182.63l2.5-2.895a1.248,1.248,0,0,0-.937-2.073H57.785a.535.535,0,0,0-.535.535v4.28a.533.533,0,0,0,.015.074.561.561,0,0,0,.023.112.5.5,0,0,0,.049.087.347.347,0,0,0,.144.155.486.486,0,0,0,.063.049l.031.014.005,0a6.847,6.847,0,0,0,3.061.755,5.249,5.249,0,0,0,1.969-.392,4.113,4.113,0,0,1,3.19,0,5.252,5.252,0,0,0,1.969.392H67.8a6.747,6.747,0,0,0,3.071-.771A.535.535,0,0,0,71.1,145.785Z" transform="translate(-57.25 -134.792)" fill="#eee"/>
      <path id="패스_1046" data-name="패스 1046" d="M74.92,138a.535.535,0,0,0-.535-.535H71.532A.535.535,0,0,0,71,138v.535H74.92Z" transform="translate(-63.15 -133.183)" fill="#eee"/>
      <path id="패스_1047" data-name="패스 1047" d="M64.027,138v-.535a1.25,1.25,0,0,0-1.248-1.248H58.5a1.25,1.25,0,0,0-1.248,1.248v.634a1.588,1.588,0,0,1,.535-.1Z" transform="translate(-57.25 -132.647)" fill="#eee"/>
      <path id="패스_1048" data-name="패스 1048" d="M63.668,132.462a1.246,1.246,0,0,0-1.23-1.07H62.26V130.5a.535.535,0,1,0-1.07,0v.892h-.179a1.246,1.246,0,0,0-1.23,1.07Z" transform="translate(-58.336 -129.965)" fill="#eee"/>
    </g>
    <path id="패스_1049" data-name="패스 1049" d="M80.223,129.108a.594.594,0,0,1-.405.563l-2.374.791a.582.582,0,0,1-.188.03.593.593,0,0,1-.188-1.156l.685-.228-.685-.228a.593.593,0,0,1-.321-.868l1.153-1.921-1.921,1.153a.6.6,0,0,1-.511.048.593.593,0,0,1-.357-.369l-.228-.685-.228.685a.593.593,0,1,1-1.126-.376l.791-2.374a.593.593,0,0,1,1.126,0L76,125.845l3.322-1.993a.593.593,0,0,1,.814.814l-1.993,3.322,1.672.558a.592.592,0,0,1,.406.563Z" transform="translate(-6.973)" fill="#eee"/>
  </g>
</svg>
