<svg xmlns="http://www.w3.org/2000/svg" width="16" height="16" viewBox="0 0 16 16">
  <g id="ico_layer_b_01_on" transform="translate(-98.245 -2.25)">
    <path id="패스_962" data-name="패스 962" d="M113.63,17.019H112.6V3.686a1.438,1.438,0,0,0-1.436-1.436h-9.846a1.437,1.437,0,0,0-1.436,1.436V17.019H98.86a.615.615,0,0,0,0,1.231h4.308v-3.9a1.437,1.437,0,0,1,1.436-1.436h3.282a1.438,1.438,0,0,1,1.436,1.436v3.9h4.308a.615.615,0,1,0,0-1.231Zm-10.651-6.154a.619.619,0,0,1-.619-.615.612.612,0,0,1,.611-.615h.008a.615.615,0,1,1,0,1.231Zm0-4.1a.619.619,0,0,1-.619-.615.612.612,0,0,1,.611-.615h.008a.615.615,0,1,1,0,1.231Zm3.282,4.1a.619.619,0,0,1-.619-.615.612.612,0,0,1,.611-.615h.008a.615.615,0,1,1,0,1.231Zm0-4.1a.619.619,0,0,1-.619-.615.612.612,0,0,1,.611-.615h.008a.615.615,0,1,1,0,1.231Zm3.282,4.1a.619.619,0,0,1-.619-.615.612.612,0,0,1,.611-.615h.008a.615.615,0,0,1,0,1.231Zm0-4.1a.619.619,0,0,1-.619-.615.612.612,0,0,1,.611-.615h.008a.615.615,0,0,1,0,1.231Z" transform="translate(0 0)" fill="#eee"/>
    <path id="패스_963" data-name="패스 963" d="M109.232,16.75H105.95a.205.205,0,0,0-.205.205v3.9h3.692v-3.9A.206.206,0,0,0,109.232,16.75Z" transform="translate(-1.346 -2.603)" fill="#eee"/>
  </g>
</svg>
