<svg xmlns="http://www.w3.org/2000/svg" width="20" height="20" viewBox="0 0 20 20">
  <g id="ico_search_on" transform="translate(-15 -15)">
    <rect id="사각형_192" data-name="사각형 192" width="20" height="20" transform="translate(15 15)" fill="none"/>
    <path id="Search" d="M124.252,114.159a7.152,7.152,0,0,0-11.115,1.21,7.232,7.232,0,0,0,.076,7.9,7.152,7.152,0,0,0,9.384,2.337l4.3,4.113a1.181,1.181,0,0,0,1.655-.021l1.1-1.109a1.2,1.2,0,0,0,0-1.687l-4.17-4.2A7.249,7.249,0,0,0,124.252,114.159Zm-2.13,8.059a4.144,4.144,0,0,1-5.878,0,4.206,4.206,0,0,1,0-5.914,4.144,4.144,0,0,1,5.878,0A4.208,4.208,0,0,1,122.121,122.218Z" transform="translate(-96 -96.046)" fill="#f1f5f7" fill-rule="evenodd"/>
  </g>
</svg>
