<svg xmlns="http://www.w3.org/2000/svg" width="20.531" height="20.531" viewBox="0 0 20.531 20.531">
  <g id="ico_tool_distance" transform="translate(-14.766 -115.647)">
    <rect id="사각형_184" data-name="사각형 184" width="20" height="20" transform="translate(15 116)" fill="none"/>
    <path id="패스_95" data-name="패스 95" d="M7.91,0H2.483A2.489,2.489,0,0,0,0,2.484V15.144a2.489,2.489,0,0,0,2.487,2.487H7.91A2.489,2.489,0,0,0,10.4,15.144V2.484A2.489,2.489,0,0,0,7.91,0Zm0,16.278H2.484a1.131,1.131,0,0,1-1.13-1.131V2.484a1.132,1.132,0,0,1,1.131-1.13H7.91a1.132,1.132,0,0,1,1.13,1.13v1.13H5.2a.678.678,0,1,0,0,1.357H9.04V8.136H7.005a.678.678,0,0,0,0,1.357H9.04v3.165H5.2a.678.678,0,0,0,0,1.357H9.04v1.13A1.132,1.132,0,0,1,7.91,16.275Z" transform="translate(27.589 116.005) rotate(45)" fill="#e5e7eb" stroke="#111" stroke-width="0.5"/>
  </g>
</svg>
