<svg xmlns="http://www.w3.org/2000/svg" width="16" height="16" viewBox="0 0 16 16">
  <path id="ico_layer_e_03" d="M-61.384,14.643a1.93,1.93,0,0,1-1.413-1.39,1.93,1.93,0,0,1,.529-1.911.32.32,0,0,0,.055-.389.319.319,0,0,0-.365-.148,1.929,1.929,0,0,1-1.919-.5,1.93,1.93,0,0,1-.5-1.919.32.32,0,0,0-.147-.365.32.32,0,0,0-.389.055,1.93,1.93,0,0,1-1.911.529A1.93,1.93,0,0,1-68.832,7.2a.32.32,0,0,0-.31-.242.32.32,0,0,0-.31.242,1.93,1.93,0,0,1-1.39,1.413,1.929,1.929,0,0,1-1.911-.529.32.32,0,0,0-.389-.055.319.319,0,0,0-.147.365,1.93,1.93,0,0,1-.5,1.919,1.929,1.929,0,0,1-1.919.5.319.319,0,0,0-.365.148.32.32,0,0,0,.055.389,1.93,1.93,0,0,1,.529,1.911,1.93,1.93,0,0,1-1.413,1.39.32.32,0,0,0-.242.31.32.32,0,0,0,.242.31,1.93,1.93,0,0,1,1.413,1.39,1.93,1.93,0,0,1-.529,1.911.32.32,0,0,0-.055.389.319.319,0,0,0,.365.147,1.931,1.931,0,0,1,1.919.5,1.93,1.93,0,0,1,.5,1.919.319.319,0,0,0,.147.365.32.32,0,0,0,.389-.055,1.93,1.93,0,0,1,1.911-.529,1.93,1.93,0,0,1,1.39,1.413.32.32,0,0,0,.31.242.32.32,0,0,0,.31-.242,1.93,1.93,0,0,1,1.39-1.413,1.93,1.93,0,0,1,1.911.529.32.32,0,0,0,.389.055.32.32,0,0,0,.147-.365,1.93,1.93,0,0,1,.5-1.919,1.93,1.93,0,0,1,1.919-.5.319.319,0,0,0,.365-.147.32.32,0,0,0-.055-.389,1.93,1.93,0,0,1-.529-1.911,1.93,1.93,0,0,1,1.413-1.39.32.32,0,0,0,.242-.31A.32.32,0,0,0-61.384,14.643Zm-7.628,4.469h-.26a.78.78,0,0,1-.779-.78.779.779,0,0,1,.779-.779h.26a.779.779,0,0,1,.779.779A.78.78,0,0,1-69.012,19.112Zm.66-3.19a.779.779,0,0,1-.778.737h-.025a.779.779,0,0,1-.778-.737l-.233-4.306a.779.779,0,0,1,.778-.821h.49a.779.779,0,0,1,.778.821Z" transform="translate(77.142 -6.953)" fill="#424242"/>
</svg>
