<svg xmlns="http://www.w3.org/2000/svg" width="16" height="16" viewBox="0 0 16 16">
  <g id="ico_layer_c_08_on" transform="translate(-625 -98)">
    <rect id="ico_layer_a_1" width="16" height="16" transform="translate(625 98)" fill="none"/>
    <path id="Path_1065" data-name="Path 1065" d="M141.486,49.29a3.994,3.994,0,0,0-7.325,0h-4.338v3.2h4.338a3.994,3.994,0,0,0,7.325,0h4.338v-3.2Zm-1.654,1.36L137.07,53.5a.283.283,0,0,1-.473-.285l.518-1.6h-1.1a.283.283,0,0,1-.218-.463l2.337-2.846a.283.283,0,0,1,.5.24l-.351,1.627h1.349a.283.283,0,0,1,.2.48Z" transform="translate(495.176 55.11)" fill="#fff"/>
  </g>
</svg>
