<svg xmlns="http://www.w3.org/2000/svg" width="16" height="16" viewBox="0 0 16 16">
  <g id="ico_layer_g_01" transform="translate(-625 -98)">
    <rect id="ico_layer_a_1" width="16" height="16" transform="translate(625 98)" fill="none"/>
    <g id="ico_sea_level_2" transform="translate(602.944 -409.391)">
      <g id="그룹_135" data-name="그룹 135" transform="translate(22.056 509.841)">
        <g id="그룹_73" data-name="그룹 73" transform="translate(0 0)">
          <path id="패스_41" data-name="패스 41" d="M-524.06,1476.917a7.209,7.209,0,0,0-1.671-.784c-.309-.1-.608.258-.664.8s.149,1.056.46,1.154a6.616,6.616,0,0,1,1.488.7.356.356,0,0,0,.194.059c.234,0,.453-.251.537-.656A1.286,1.286,0,0,0-524.06,1476.917Z" transform="translate(539.682 -1475.862)" fill="#424242"/>
          <path id="패스_42" data-name="패스 42" d="M-532.456,1475.95a6.4,6.4,0,0,0-1.669.508,4.508,4.508,0,0,1-2.413.46,3.853,3.853,0,0,1-1.52-.472,4.1,4.1,0,0,0-1.931-.522,6.468,6.468,0,0,0-3.63,1.049,1.283,1.283,0,0,0-.347,1.269c.1.517.431.787.729.6a5.651,5.651,0,0,1,3.227-.937,3.426,3.426,0,0,1,1.638.445,4.615,4.615,0,0,0,1.768.546,5.083,5.083,0,0,0,.513.026,5.415,5.415,0,0,0,2.231-.538,5.733,5.733,0,0,1,1.492-.459c.315-.043.55-.521.526-1.068S-532.135,1475.91-532.456,1475.95Z" transform="translate(544 -1475.922)" fill="#424242"/>
          <path id="패스_43" data-name="패스 43" d="M-528.378,1480.766a6.653,6.653,0,0,0-3.025-1.051,5.3,5.3,0,0,0-2.723.532,4.489,4.489,0,0,1-2.412.462,3.888,3.888,0,0,1-1.52-.474,4.12,4.12,0,0,0-1.931-.522,6.432,6.432,0,0,0-3.63,1.051,1.28,1.28,0,0,0-.347,1.267c.1.517.431.786.729.6a5.7,5.7,0,0,1,3.227-.937,3.426,3.426,0,0,1,1.638.446,4.584,4.584,0,0,0,1.768.546,4.88,4.88,0,0,0,.512.027,5.414,5.414,0,0,0,2.231-.538,4.714,4.714,0,0,1,2.406-.48,5.931,5.931,0,0,1,2.689.934c.3.189.625-.081.731-.6A1.285,1.285,0,0,0-528.378,1480.766Z" transform="translate(544 -1475.677)" fill="#424242"/>
          <path id="패스_1051" data-name="패스 1051" d="M-528.378,1480.766a6.653,6.653,0,0,0-3.025-1.051,5.3,5.3,0,0,0-2.723.532,4.489,4.489,0,0,1-2.412.462,3.888,3.888,0,0,1-1.52-.474,4.12,4.12,0,0,0-1.931-.522,6.432,6.432,0,0,0-3.63,1.051,1.28,1.28,0,0,0-.347,1.267c.1.517.431.786.729.6a5.7,5.7,0,0,1,3.227-.937,3.426,3.426,0,0,1,1.638.446,4.584,4.584,0,0,0,1.768.546,4.88,4.88,0,0,0,.512.027,5.414,5.414,0,0,0,2.231-.538,4.714,4.714,0,0,1,2.406-.48,5.931,5.931,0,0,1,2.689.934c.3.189.625-.081.731-.6A1.285,1.285,0,0,0-528.378,1480.766Z" transform="translate(544 -1471.619)" fill="#424242"/>
        </g>
      </g>
    </g>
  </g>
</svg>
