<svg xmlns="http://www.w3.org/2000/svg" width="20" height="20" viewBox="0 0 20 20">
  <g id="ico_ts_set_on" transform="translate(-15 -15)">
    <rect id="사각형_192" data-name="사각형 192" width="20" height="20" transform="translate(15 15)" fill="none"/>
    <g id="그룹_589" data-name="그룹 589" transform="translate(-86.805 -84.842)">
      <path id="패스_828" data-name="패스 828" d="M119.805,102.842h-16a2,2,0,0,0-2,2v10a2,2,0,0,0,2,2h16a2,2,0,0,0,2-2v-10A2,2,0,0,0,119.805,102.842Zm-13,10a3,3,0,1,1,3-3A3,3,0,0,1,106.805,112.842Zm13,0a2,2,0,0,1-2,2h-6v-10h6a2,2,0,0,1,2,2Z" fill="#fafafa"/>
      <circle id="타원_58" data-name="타원 58" cx="3" cy="3" r="3" transform="translate(112.805 106.842)" fill="#fafafa"/>
    </g>
  </g>
</svg>
