<svg xmlns="http://www.w3.org/2000/svg" width="26" height="26" viewBox="0 0 26 26">
  <g id="ico_sq_3" transform="translate(-1634 -92)">
    <rect id="사각형_213" data-name="사각형 213" width="26" height="26" rx="3" transform="translate(1634 92)" fill="#e5e7eb"/>
    <g id="그룹_616" data-name="그룹 616" transform="translate(1549.105 -398.007)">
      <path id="패스_834" data-name="패스 834" d="M107.833,513.49l-3.533-7.508a.637.637,0,0,0-.574-.364h-.921a.634.634,0,1,0,0,1.268h.519l1.17,2.487h-4.051a.186.186,0,0,0-.065.011l-.073,0a.126.126,0,0,0-.054.022.585.585,0,0,0-.116.051.573.573,0,0,0-.181.153.68.68,0,0,0-.068.1.724.724,0,0,0-.042.108.551.551,0,0,0-.024.117l-.01.065a.215.215,0,0,0,.011.066l.683,3.054H95.285l.677-2.98a.187.187,0,0,0,0-.067l.012-.073a.13.13,0,0,0-.009-.055.638.638,0,0,0-.025-.127.649.649,0,0,0-.043-.109.611.611,0,0,0-.068-.1.553.553,0,0,0-.08-.086.588.588,0,0,0-.1-.067.5.5,0,0,0-.105-.048l-.063-.025a.234.234,0,0,0-.07-.005l-4.123-.011,1.171-2.487h.466a.634.634,0,1,0,0-1.268h-.869a.638.638,0,0,0-.574.364l-3.533,7.508a.634.634,0,0,0,.574.9H107.26a.634.634,0,0,0,.573-.9ZM94.55,510.64l-.565,2.486H89.527L90.7,510.64Zm11.711,2.486H101.8l-.565-2.486h3.853Z" transform="translate(0 -3.564)" fill="#283c50" stroke="#283c50" stroke-width="0.5"/>
      <path id="패스_835" data-name="패스 835" d="M102.556,500.467a.868.868,0,1,0-.868.868A.868.868,0,0,0,102.556,500.467Zm-.508,0a.359.359,0,1,1-.359-.359A.36.36,0,0,1,102.047,500.467Z" transform="translate(-3.794 -2.311)" fill="#283c50" stroke="#283c50" stroke-width="0.5"/>
      <path id="패스_836" data-name="패스 836" d="M101.377,507.134a.636.636,0,0,0,.509-.255c.355-.478,3.464-4.727,3.464-6.722a3.972,3.972,0,0,0-7.945,0c0,2,3.109,6.244,3.464,6.722A.636.636,0,0,0,101.377,507.134Zm-2.7-6.978a2.7,2.7,0,0,1,5.41,0c0,1.013-1.374,3.344-2.7,5.255C100.046,503.5,98.673,501.169,98.673,500.156Z" transform="translate(-3.483 -2)" fill="#283c50" stroke="#283c50" stroke-width="0.5"/>
    </g>
  </g>
</svg>
