<svg xmlns="http://www.w3.org/2000/svg" width="20" height="20" viewBox="0 0 20 20">
  <g id="ico_tool_screen_save" transform="translate(-5.75 -91.682)">
    <g id="그룹_543" data-name="그룹 543" transform="translate(0 1.181)">
      <path id="패스_32" data-name="패스 32" d="M655.462,13h-1.583a2.478,2.478,0,0,0-2.161,1.3,3.045,3.045,0,0,1-5.435,0,2.478,2.478,0,0,0-2.161-1.3h-1.583A2.64,2.64,0,0,0,640,15.727v1.983a2.64,2.64,0,0,0,2.538,2.727h12.923A2.64,2.64,0,0,0,658,17.711V15.727A2.64,2.64,0,0,0,655.462,13Zm1.154,4.711a1.2,1.2,0,0,1-1.154,1.24H642.539a1.2,1.2,0,0,1-1.154-1.24V15.727a1.2,1.2,0,0,1,1.154-1.24h1.583a1.1,1.1,0,0,1,.967.572,4.384,4.384,0,0,0,7.822,0,1.1,1.1,0,0,1,.967-.572h1.583a1.2,1.2,0,0,1,1.154,1.24Z" transform="translate(-633.25 88.426)" fill="#111" stroke="#111" stroke-width="0.5"/>
      <path id="패스_33" data-name="패스 33" d="M649.221,13.2a.755.755,0,0,0,1.06,0l3-2.975a.738.738,0,0,0,0-1.051.754.754,0,0,0-1.06,0l-1.721,1.7V4.744a.75.75,0,0,0-1.5,0v6.138l-1.721-1.7a.754.754,0,0,0-1.06,0,.738.738,0,0,0,0,1.051Z" transform="translate(-634.001 88.5)" fill="#111" stroke="#111" stroke-width="0.5"/>
    </g>
    <g id="그룹_542" data-name="그룹 542" transform="translate(-9.25 -158.318)">
      <rect id="사각형_187" data-name="사각형 187" width="20" height="20" transform="translate(15 250)" fill="none"/>
    </g>
  </g>
</svg>
