<svg xmlns="http://www.w3.org/2000/svg" width="16" height="16" viewBox="0 0 16 16">
  <g id="ico_layer_f_01" transform="translate(-625 -98)">
    <rect id="ico_layer_a_1" width="16" height="16" transform="translate(625 98)" fill="none"/>
    <g id="그룹_1264" data-name="그룹 1264" transform="translate(953.729 -28.019)">
      <g id="그룹_1076" data-name="그룹 1076" transform="translate(-328.729 128.644)">
        <path id="패스_1014" data-name="패스 1014" d="M-313.129,135.673a6.293,6.293,0,0,0-2.126.42,5.533,5.533,0,0,1-1.874.38,5.243,5.243,0,0,1-1.93-.419,4.729,4.729,0,0,0-1.67-.381,4.729,4.729,0,0,0-1.67.381,5.243,5.243,0,0,1-1.93.419,5.533,5.533,0,0,1-1.874-.38,6.3,6.3,0,0,0-2.126-.42.4.4,0,0,0-.4.4.4.4,0,0,0,.4.4,5.538,5.538,0,0,1,1.873.38,6.289,6.289,0,0,0,2.127.42,6,6,0,0,0,2.2-.467,3.982,3.982,0,0,1,1.4-.333,3.977,3.977,0,0,1,1.4.333,6,6,0,0,0,2.205.467,6.286,6.286,0,0,0,2.126-.42,5.544,5.544,0,0,1,1.874-.38.4.4,0,0,0,.4-.4A.4.4,0,0,0-313.129,135.673Z" transform="translate(328.729 -135.673)" fill="#424242"/>
      </g>
      <g id="그룹_1077" data-name="그룹 1077" transform="translate(-328.729 126.887)">
        <path id="패스_1015" data-name="패스 1015" d="M-313.129,126.887a6.29,6.29,0,0,0-2.126.42,5.536,5.536,0,0,1-1.874.38,5.238,5.238,0,0,1-1.93-.419,4.729,4.729,0,0,0-1.67-.381,4.729,4.729,0,0,0-1.67.381,5.238,5.238,0,0,1-1.93.419,5.536,5.536,0,0,1-1.874-.38,6.292,6.292,0,0,0-2.126-.42.4.4,0,0,0-.4.4.4.4,0,0,0,.4.4,5.541,5.541,0,0,1,1.873.38,6.292,6.292,0,0,0,2.127.42,6,6,0,0,0,2.2-.467,3.98,3.98,0,0,1,1.4-.333,3.975,3.975,0,0,1,1.4.333,6,6,0,0,0,2.205.467,6.289,6.289,0,0,0,2.126-.42,5.547,5.547,0,0,1,1.874-.38.4.4,0,0,0,.4-.4A.4.4,0,0,0-313.129,126.887Z" transform="translate(328.729 -126.887)" fill="#424242"/>
      </g>
      <g id="그룹_1078" data-name="그룹 1078" transform="translate(-328.729 130.401)">
        <path id="패스_1016" data-name="패스 1016" d="M-313.129,144.459a6.286,6.286,0,0,0-2.126.42,5.539,5.539,0,0,1-1.874.38,5.243,5.243,0,0,1-1.93-.419,4.729,4.729,0,0,0-1.67-.381,4.729,4.729,0,0,0-1.67.381,5.243,5.243,0,0,1-1.93.419,5.539,5.539,0,0,1-1.874-.38,6.289,6.289,0,0,0-2.126-.42.4.4,0,0,0-.4.368.194.194,0,0,1,0-.023v.056h0v1.2h0v9.5h16v-8.281h0V144.8a.186.186,0,0,1,0,.023A.4.4,0,0,0-313.129,144.459Zm-6.524,8.013a.493.493,0,0,1,.625,0,.387.387,0,0,1,.054.054.373.373,0,0,1,.083.276.374.374,0,0,1-.137.254l-1.386,1.2a.465.465,0,0,1-.147.084.5.5,0,0,1-.167.029.5.5,0,0,1-.169-.029.457.457,0,0,1-.145-.084l-1.389-1.2a.357.357,0,0,1-.052-.052.378.378,0,0,1,.054-.53.494.494,0,0,1,.625,0l.625.539v-5.287l-.623.537a.493.493,0,0,1-.626,0,.4.4,0,0,1-.054-.054.374.374,0,0,1-.083-.276.376.376,0,0,1,.136-.254l1.386-1.2a.465.465,0,0,1,.146-.084.508.508,0,0,1,.336,0,.47.47,0,0,1,.146.083l1.389,1.2a.386.386,0,0,1,.052.052.375.375,0,0,1,.083.276.373.373,0,0,1-.137.254.492.492,0,0,1-.625,0l-.624-.539v5.286Z" transform="translate(328.729 -144.459)" fill="#424242"/>
        <path id="패스_1017" data-name="패스 1017" d="M-328.729,146.085v.019a.128.128,0,0,1,0-.019Z" transform="translate(328.729 -145.76)" fill="#424242"/>
        <path id="패스_1018" data-name="패스 1018" d="M-248.742,146.085a.17.17,0,0,1,0,.019v-.019Z" transform="translate(264.739 -145.76)" fill="#424242"/>
      </g>
    </g>
  </g>
</svg>
