<svg xmlns="http://www.w3.org/2000/svg" width="16" height="16" viewBox="0 0 16 16">
  <g id="ico_layer_d_02_on" transform="translate(-625 -98)">
    <rect id="ico_layer_a_1" width="16" height="16" transform="translate(625 98)" fill="none"/>
    <g id="그룹_1261" data-name="그룹 1261" transform="translate(621.854 94.727)">
      <path id="패스_988" data-name="패스 988" d="M18.746,12.132a6.3,6.3,0,0,0-2.126.42,5.533,5.533,0,0,1-1.874.38,5.237,5.237,0,0,1-1.93-.418,3.845,3.845,0,0,0-3.34,0,5.239,5.239,0,0,1-1.93.418,5.525,5.525,0,0,1-1.874-.38,6.3,6.3,0,0,0-2.126-.42.4.4,0,1,0,0,.8,5.552,5.552,0,0,1,1.874.38,6.281,6.281,0,0,0,2.126.42,6.005,6.005,0,0,0,2.2-.467,3.093,3.093,0,0,1,2.79,0,6,6,0,0,0,2.206.467,6.285,6.285,0,0,0,2.126-.42,5.545,5.545,0,0,1,1.874-.38.4.4,0,0,0,0-.8Z" transform="translate(0 -1.659)" fill="#eee"/>
      <g id="그룹_1108" data-name="그룹 1108" transform="translate(4.746 3.593)">
        <path id="패스_1054" data-name="패스 1054" d="M7.946,10.531a5.916,5.916,0,0,0,1.93-.363,4.383,4.383,0,0,1,3.34,0,5.912,5.912,0,0,0,1.93.363,6.273,6.273,0,0,0,1.874-.33c.146-.049.3-.091.446-.13a18.133,18.133,0,0,0,.48-3.361.616.616,0,0,0-.183-.454.662.662,0,0,0-.457-.2c-1.344-.031-3.026-1.349-4.15-1.869a7,7,0,0,0-1.5-.589.835.835,0,0,0-.11,0,.847.847,0,0,0-.11,0,6.954,6.954,0,0,0-1.5.589C8.812,4.7,7.13,6.022,5.786,6.053a.662.662,0,0,0-.457.2.615.615,0,0,0-.182.454,18.068,18.068,0,0,0,.479,3.361c.15.039.3.082.446.13A6.264,6.264,0,0,0,7.946,10.531Z" transform="translate(-5.146 -3.593)" fill="#eee"/>
        <path id="패스_1055" data-name="패스 1055" d="M13.116,14.288a3.515,3.515,0,0,0-2.79,0,6.8,6.8,0,0,1-2.2.4,7.135,7.135,0,0,1-2.1-.356,10.547,10.547,0,0,0,5.388,6.516.617.617,0,0,0,.622,0,10.548,10.548,0,0,0,5.389-6.516,7.14,7.14,0,0,1-2.1.356A6.793,6.793,0,0,1,13.116,14.288Z" transform="translate(-5.321 -5.577)" fill="#eee"/>
      </g>
    </g>
  </g>
</svg>
