<svg xmlns="http://www.w3.org/2000/svg" width="20" height="20" viewBox="0 0 20 20">
  <g id="ico_fv_link" transform="translate(-15 -15)">
    <rect id="사각형_192" data-name="사각형 192" width="20" height="20" transform="translate(15 15)" fill="none"/>
    <g id="그룹_587" data-name="그룹 587" transform="translate(4.177 4.183)">
      <path id="패스_820" data-name="패스 820" d="M17.42,78.67a8.949,8.949,0,0,0,6.805,0,8.946,8.946,0,0,1,6.155-.238.642.642,0,0,1,.391.859l-.153.364a.655.655,0,0,1-.807.364,7.2,7.2,0,0,0-4.935.207,10.629,10.629,0,0,1-8.107,0,7.208,7.208,0,0,0-4.937-.206.656.656,0,0,1-.807-.364l-.152-.364a.643.643,0,0,1,.394-.861A8.958,8.958,0,0,1,17.42,78.67Z" transform="translate(0 -50.213)" fill="#456074"/>
      <path id="패스_821" data-name="패스 821" d="M35.138,65.9a.653.653,0,0,1,.811-.362,8.951,8.951,0,0,0,6.235-.211,8.948,8.948,0,0,1,6.155-.238.642.642,0,0,1,.392.859l-.153.365a.655.655,0,0,1-.807.364,7.2,7.2,0,0,0-4.935.207,10.621,10.621,0,0,1-7.461.24.644.644,0,0,1-.388-.858Z" transform="translate(-17.958 -40.239)" fill="#456074"/>
      <path id="패스_822" data-name="패스 822" d="M30.733,12.784l-.491-.486a.507.507,0,0,0-.712,0l-2.845,2.807a.51.51,0,0,1-.649.051,12.109,12.109,0,0,0-6.411-2.114h0l.9-.888a.5.5,0,0,0,0-.705l-.491-.485a.508.508,0,0,0-.713,0l-2.281,2.257h0a11.984,11.984,0,0,0-5.974,2.912.5.5,0,0,0,0,.747,12.025,12.025,0,0,0,7.86,3.091h0l2.1,2.074a.508.508,0,0,0,.713,0l.491-.485a.5.5,0,0,0,0-.705l-1.058-1.047h0a12.068,12.068,0,0,0,4.877-1.96.5.5,0,0,1,.638.05l2.85,2.814a.507.507,0,0,0,.712,0l.491-.485a.5.5,0,0,0,0-.705l-2.69-2.663a.5.5,0,0,1,0-.705l2.69-2.662A.5.5,0,0,0,30.733,12.784Z" transform="translate(-0.057 0)" fill="#456074"/>
    </g>
  </g>
</svg>
