<svg xmlns="http://www.w3.org/2000/svg" width="16" height="16" viewBox="0 0 16 16">
  <g id="ico_layer_a_02_on" transform="translate(283.585 -24.539)">
    <rect id="사각형_561" data-name="사각형 561" width="16" height="2.983" transform="translate(-283.585 37.556)" fill="#eee"/>
    <path id="패스_1005" data-name="패스 1005" d="M-257.689,24.539a3.668,3.668,0,0,0-3.667,3.67c0,2.793,3.391,5.006,3.535,5.1a.245.245,0,0,0,.265,0c.144-.093,3.534-2.306,3.534-5.1A3.668,3.668,0,0,0-257.689,24.539Zm-.116,6.942a.613.613,0,0,1-.614-.621.608.608,0,0,1,.614-.607.627.627,0,0,1,.62.607A.632.632,0,0,1-257.8,31.481Zm1.029-2.532a.893.893,0,0,0-.545.86v.1h-1v-.1c0-.822.211-1.078.6-1.324.3-.194.528-.386.532-.682a.5.5,0,0,0-.532-.491.539.539,0,0,0-.559.546h-1.084a1.458,1.458,0,0,1,1.65-1.453c.989,0,1.7.478,1.7,1.344A1.34,1.34,0,0,1-256.776,28.949Z" transform="translate(-17.783 0)" fill="#eee"/>
    <g id="그룹_1073" data-name="그룹 1073" transform="translate(-282.356 34.654)">
      <path id="패스_1006" data-name="패스 1006" d="M-274.182,76.1l-1.512-.84a.129.129,0,0,0-.126,0l-.5.277v-.251a.216.216,0,0,0-.216-.216h-.346a.216.216,0,0,0-.216.216v.683l-.235.131a.216.216,0,0,0-.111.189v.321a.214.214,0,0,0,.106.186.215.215,0,0,0,.215,0l1.365-.759,1.365.759a.215.215,0,0,0,.105.028.216.216,0,0,0,.11-.03.215.215,0,0,0,.107-.186V76.29A.217.217,0,0,0-274.182,76.1Z" transform="translate(277.442 -75.071)" fill="#eee"/>
      <path id="패스_1007" data-name="패스 1007" d="M-274.373,81.4l-1.239.689a.484.484,0,0,1-.1.04v.9a.3.3,0,0,0,.3.3h.519a.3.3,0,0,0,.3-.3v-.519a.216.216,0,0,1,.216-.216.217.217,0,0,1,.216.216v.519a.3.3,0,0,0,.3.3h.519a.3.3,0,0,0,.3-.3v-.9a.464.464,0,0,1-.1-.04Z" transform="translate(276.059 -80.135)" fill="#eee"/>
    </g>
    <g id="그룹_1074" data-name="그룹 1074" transform="translate(-277.16 34.053)">
      <path id="패스_1008" data-name="패스 1008" d="M-246.954,83.571h-.364a.048.048,0,0,0-.046.05v.4a.048.048,0,0,0,.046.05h.364a.048.048,0,0,0,.045-.05v-.4A.048.048,0,0,0-246.954,83.571Z" transform="translate(248.183 -81.269)" fill="#eee"/>
      <path id="패스_1009" data-name="패스 1009" d="M-239.672,83.571h-.364a.048.048,0,0,0-.046.05v1.351h.455V83.621A.048.048,0,0,0-239.672,83.571Z" transform="translate(242.358 -81.269)" fill="#eee"/>
      <path id="패스_1010" data-name="패스 1010" d="M-246.954,76.571h-.364a.048.048,0,0,0-.046.05v.4a.048.048,0,0,0,.046.05h.364a.048.048,0,0,0,.045-.05v-.4A.048.048,0,0,0-246.954,76.571Z" transform="translate(248.183 -75.67)" fill="#eee"/>
      <path id="패스_1011" data-name="패스 1011" d="M-239.672,76.571h-.364a.048.048,0,0,0-.046.05v.4a.048.048,0,0,0,.046.05h.364a.048.048,0,0,0,.045-.05v-.4A.048.048,0,0,0-239.672,76.571Z" transform="translate(242.358 -75.67)" fill="#eee"/>
      <path id="패스_1012" data-name="패스 1012" d="M-248.229,72.071h-2.913a.336.336,0,0,0-.319.35v3.2a.144.144,0,0,0,.137.15h1.866V74.423a.336.336,0,0,1,.319-.35h.364a.336.336,0,0,1,.319.35v1.351h.41a.144.144,0,0,0,.136-.15v-3.2A.336.336,0,0,0-248.229,72.071Zm-1.684,2.752a.336.336,0,0,1-.318.35h-.364a.336.336,0,0,1-.319-.35v-.4a.336.336,0,0,1,.319-.35h.364a.336.336,0,0,1,.318.35Zm0-1.4a.336.336,0,0,1-.318.35h-.364a.336.336,0,0,1-.319-.35v-.4a.336.336,0,0,1,.319-.35h.364a.336.336,0,0,1,.318.35Zm1.457,0a.336.336,0,0,1-.319.35h-.364a.336.336,0,0,1-.319-.35v-.4a.336.336,0,0,1,.319-.35h.364a.336.336,0,0,1,.319.35Z" transform="translate(251.46 -72.071)" fill="#eee"/>
    </g>
    <path id="패스_1013" data-name="패스 1013" d="M-221.605,78.042h-.564v-.148l.463-.309a.13.13,0,0,0,.058-.108.131.131,0,0,0-.058-.108l-.521-.347a.13.13,0,0,0-.134-.006.13.13,0,0,0-.069.115v.912h-.781v-.148l.463-.309a.129.129,0,0,0,.058-.108.13.13,0,0,0-.058-.108l-.521-.347a.13.13,0,0,0-.134-.006.13.13,0,0,0-.069.115v.912h-.781v-.148l.463-.309a.13.13,0,0,0,.058-.108.13.13,0,0,0-.058-.108l-.521-.347a.13.13,0,0,0-.134-.006.13.13,0,0,0-.069.115v.912h-.217a.13.13,0,0,0-.13.13.13.13,0,0,0,.13.13h.043v1.26a.3.3,0,0,0,.3.3h2.43a.3.3,0,0,0,.3-.3V78.3h.043a.13.13,0,0,0,.13-.13A.13.13,0,0,0-221.605,78.042Zm-2.257,1.3h-.174a.13.13,0,0,1-.13-.13.13.13,0,0,1,.13-.13h.174a.13.13,0,0,1,.13.13A.13.13,0,0,1-223.862,79.345Zm0-.521h-.174a.13.13,0,0,1-.13-.13.13.13,0,0,1,.13-.13h.174a.13.13,0,0,1,.13.13A.13.13,0,0,1-223.862,78.824Zm.868.521h-.347a.13.13,0,0,1-.13-.13.13.13,0,0,1,.13-.13h.347a.13.13,0,0,1,.13.13A.13.13,0,0,1-222.994,79.345Zm0-.521h-.347a.13.13,0,0,1-.13-.13.13.13,0,0,1,.13-.13h.347a.13.13,0,0,1,.13.13A.13.13,0,0,1-222.994,78.824Zm.694.521h-.174a.13.13,0,0,1-.13-.13.13.13,0,0,1,.13-.13h.174a.13.13,0,0,1,.13.13A.13.13,0,0,1-222.3,79.345Zm0-.521h-.174a.13.13,0,0,1-.13-.13.13.13,0,0,1,.13-.13h.174a.13.13,0,0,1,.13.13A.13.13,0,0,1-222.3,78.824Z" transform="translate(-46.98 -41.96)" fill="#eee"/>
  </g>
</svg>
