<svg xmlns="http://www.w3.org/2000/svg" width="26" height="26" viewBox="0 0 26 26">
  <g id="ico_sq_1" transform="translate(-1634 -92)">
    <rect id="ico_sq_1-2" data-name="ico_sq_1" width="26" height="26" rx="3" transform="translate(1634 92)" fill="#e5e7eb"/>
    <path id="패스_829" data-name="패스 829" d="M5,3A2,2,0,0,0,3,5V15.172a3,3,0,0,0,.879,2.121l2.828,2.828A3,3,0,0,0,8.828,21H13a1,1,0,0,0,0-2H9V9H19v2a1,1,0,1,0,2,0V8.828a3,3,0,0,0-.879-2.121L17.293,3.879A3,3,0,0,0,15.172,3ZM6.414,5h8.758a1,1,0,0,1,.707.293L17.586,7H8.414ZM5,6.414l2,2v9.172L5.293,15.879A1,1,0,0,1,5,15.172Zm11.633,5.592a.719.719,0,0,0-.633.717v7.14a.5.5,0,0,0,.846.364l1.361-1.3,1.471,3.392a1.123,1.123,0,1,0,2.054-.91L20.2,18.029h1.832a.5.5,0,0,0,.348-.859L17.221,12.2A.708.708,0,0,0,16.633,12.006Z" transform="translate(1634.232 92)" fill="#283c50"/>
  </g>
</svg>
