<?xml version="1.0" encoding="UTF-8" standalone="no"?>
<svg
   width="39.945"
   height="52.594"
   viewBox="0 0 39.945 52.594"
   version="1.1"
   id="svg1"
   sodipodi:docname="ico_pin_default.svg"
   inkscape:version="1.3.2 (091e20e, 2023-11-25, custom)"
   xmlns:inkscape="http://www.inkscape.org/namespaces/inkscape"
   xmlns:sodipodi="http://sodipodi.sourceforge.net/DTD/sodipodi-0.dtd"
   xmlns="http://www.w3.org/2000/svg"
   xmlns:svg="http://www.w3.org/2000/svg">
  <defs
     id="defs1" />
  <sodipodi:namedview
     id="namedview1"
     pagecolor="#ffffff"
     bordercolor="#000000"
     borderopacity="0.25"
     inkscape:showpageshadow="2"
     inkscape:pageopacity="0.0"
     inkscape:pagecheckerboard="0"
     inkscape:deskcolor="#d1d1d1"
     inkscape:zoom="15.458037"
     inkscape:cx="19.957256"
     inkscape:cy="25.326631"
     inkscape:window-width="1920"
     inkscape:window-height="1009"
     inkscape:window-x="-8"
     inkscape:window-y="-8"
     inkscape:window-maximized="1"
     inkscape:current-layer="svg1" />
  <path
     id="ico_pin_default"
     d="m 532.973,1010.594 c -6.293,0 -18.973,-20.515 -18.973,-31.68 0.0757,-10.42448 8.54775,-18.83525 18.9725,-18.83525 7.99535,0 14.84209,4.94743 17.63316,11.9563 0.36154,0.90789 0.65503,1.85037 0.87415,2.82116 0.29487,1.30641 0.45507,2.6641 0.46519,4.05779 0,11.168 -12.68,31.68 -18.973,31.68 z m 0,-37.746 c -6.89899,0.0257 -8.73995,9.51698 -2.36326,12.12829 4.2997,1.76076 8.1303,-1.32861 8.66753,-5.01701 0.0315,-0.21599 0.0516,-0.43403 0.0599,-0.65328 0.0602,-1.58931 -0.50285,-3.2417 -1.9052,-4.632 -1.18386,-1.17819 -2.78881,-1.83543 -4.459,-1.826 z"
     transform="translate(-513,-959)"
     fill="#ed4c21"
     stroke="#ffffff"
     stroke-width="2"
     fill-rule="evenodd"
     sodipodi:nodetypes="ccsssccccssscc" />
  <path
     style="fill:#ff0000;stroke-width:0.0646913"
     d="M 19.595982,50.523849 C 18.921807,50.408209 17.995171,49.929204 16.992069,49.17781 16.206354,48.589254 14.313016,46.715735 13.431725,45.654734 9.4667275,40.881205 5.6850288,34.075724 3.6455323,28.043665 1.7547046,22.451313 1.5627276,18.567475 2.9693292,14.363572 4.9852267,8.3386691 10.091711,3.7855951 16.272378,2.5022262 17.704051,2.2049503 18.12444,2.1671273 19.989602,2.167782 c 1.978044,6.944e-4 2.553403,0.063042 4.172587,0.4521503 2.138159,0.5138245 3.886864,1.2817546 5.757523,2.5283706 5.715243,3.8086652 8.786789,10.6136341 7.793875,17.2672221 -0.867867,5.815645 -4.307756,13.644928 -8.853726,20.15133 -2.51868,3.60485 -5.023896,6.217728 -7.091249,7.395998 -0.83638,0.476687 -1.565923,0.665062 -2.17263,0.560996 z m 1.895564,-23.162305 c 4.552775,-0.927796 7.1893,-6.134803 5.197572,-10.264948 -1.016713,-2.108306 -2.860466,-3.594243 -5.095419,-4.106555 -0.81269,-0.18629 -2.352713,-0.198944 -3.156687,-0.02594 -1.43814,0.309473 -2.520541,0.881742 -3.541395,1.872345 -1.106668,1.073873 -1.823942,2.453888 -2.1236,4.085746 -0.157724,0.858926 -0.101596,2.303762 0.122582,3.155469 0.188508,0.716188 0.609804,1.651013 1.008948,2.238777 1.583117,2.331243 4.785236,3.616269 7.587999,3.045102 z"
     id="path3" />
</svg>
