<svg xmlns="http://www.w3.org/2000/svg" width="16" height="16" viewBox="0 0 16 16">
  <g id="ico_layer_c_10_on" transform="translate(-625 -98)">
    <g id="그룹_1425" data-name="그룹 1425" transform="translate(-684 -5733)">
      <circle id="타원_170" data-name="타원 170" cx="7" cy="7" r="7" transform="translate(1310 5832)" fill="#eee" opacity="0.15"/>
      <path id="패스_1366" data-name="패스 1366" d="M215.971,23.143a2.925,2.925,0,0,0,.542-2.761,3.43,3.43,0,0,0-.717-1.217,8.526,8.526,0,0,0-1.871,1.547.578.578,0,0,0,0,.787A8.317,8.317,0,0,0,215.971,23.143Z" transform="translate(1097.569 5817.896)" fill="#eee"/>
      <path id="패스_1413" data-name="패스 1413" d="M7,0A7,7,0,1,1,0,7,7,7,0,0,1,7,0Z" transform="translate(1310 5832)" fill="none" stroke="#eee" stroke-linecap="round" stroke-width="1.5" stroke-dasharray="2.2 5"/>
      <path id="패스_1367" data-name="패스 1367" d="M295.567,5.157c1.764.513,3.573-.062,5.33-1.818l.729.908a.553.553,0,0,0,.569.19,2.068,2.068,0,0,0,1.418-1.887A1.971,1.971,0,0,0,302.2.736a.551.551,0,0,0-.567.2l-.782,1.017C299.1.227,297.244-.382,295.39.233a4.631,4.631,0,0,1,.708,1.3,3.976,3.976,0,0,1-.531,3.621Z" transform="translate(1019.047 5836.332)" fill="#eee"/>
    </g>
    <rect id="사각형_629" data-name="사각형 629" width="16" height="16" transform="translate(625 98)" fill="none"/>
  </g>
</svg>
