<svg xmlns="http://www.w3.org/2000/svg" width="20" height="20" viewBox="0 0 20 20">
  <g id="ico_data_download_on" transform="translate(-15 -15)">
    <rect id="사각형_192" data-name="사각형 192" width="20" height="20" transform="translate(15 15)" fill="none"/>
    <path id="Folder-downlaod" d="M633.514,1347.375l-5.757-.013-1.909-1.909a2.142,2.142,0,0,0-1.42-.579h-5.937a2.5,2.5,0,0,0-2.49,2.5v12.5h0a2.51,2.51,0,0,0,2.509,2.5h14.983a2.5,2.5,0,0,0,2.509-2.5v-10A2.5,2.5,0,0,0,633.514,1347.375Zm-3.65,8.067-3.394,3.393a.6.6,0,0,1-.858,0l-3.394-3.393a.608.608,0,0,1,.43-1.037h2.179v-2.881a1.215,1.215,0,0,1,2.43,0v2.881h2.178A.608.608,0,0,1,629.864,1355.442Z" transform="translate(-601.001 -1328.625)" fill="#f1f5f7" fill-rule="evenodd"/>
  </g>
</svg>
