<svg xmlns="http://www.w3.org/2000/svg" width="20" height="20" viewBox="0 0 20 20">
  <g id="ico_layer_detail_off" transform="translate(-835 -96)" opacity="0.3">
    <rect id="Rectangle_578" data-name="Rectangle 578" width="20" height="20" transform="translate(835 96)" fill="none"/>
    <path id="Exclusion_1" data-name="Exclusion 1" d="M7858,3721a8,8,0,1,1,8-8A8.01,8.01,0,0,1,7858,3721Zm-.093-9.768a.8.8,0,0,0-.568.211.7.7,0,0,0-.225.537c0,.323-.019.734-.058,1.256s-.057.93-.057,1.256c0,.166,0,.479.02,1.029.013.445.02.8.02,1.03a.705.705,0,0,0,.225.537.871.871,0,0,0,1.137,0,.705.705,0,0,0,.225-.537c0-.2-.007-.5-.02-1.03-.013-.444-.02-.8-.02-1.029,0-.353.019-.775.057-1.256.039-.513.057-.924.057-1.256a.7.7,0,0,0-.225-.537A.8.8,0,0,0,7857.908,3711.233Zm.189-2.533a.933.933,0,0,0-.638.241.773.773,0,0,0-.271.592.765.765,0,0,0,.271.59.957.957,0,0,0,1.273,0,.789.789,0,0,0,0-1.183A.931.931,0,0,0,7858.1,3708.7Z" transform="translate(-7013 -3607)" fill="#424242"/>
  </g>
</svg>
