<svg xmlns="http://www.w3.org/2000/svg" width="20" height="20.149" viewBox="0 0 20 20.149">
  <g id="ico_sea_level_2" transform="translate(-15 -494.851)">
    <g id="path" transform="translate(9.306 89.006)">
      <g id="그룹_73" data-name="그룹 73" transform="translate(8.75 420.835)">
        <path id="path-2" data-name="path" d="M8658.363,3077.3a4.5,4.5,0,0,1-1.533-.4,3.382,3.382,0,0,0-1.422-.326,5.643,5.643,0,0,0-2.8.687c-.259.133-.541-.065-.633-.444a.852.852,0,0,1,.3-.929,6.352,6.352,0,0,1,3.151-.77,4.066,4.066,0,0,1,1.677.383,3.826,3.826,0,0,0,1.32.346,4.516,4.516,0,0,0,2.092-.337,5.335,5.335,0,0,1,2.366-.392,6.538,6.538,0,0,1,2.625.77.851.851,0,0,1,.3.931c-.094.378-.376.576-.635.439a5.793,5.793,0,0,0-2.336-.685,4.74,4.74,0,0,0-2.088.352,5.422,5.422,0,0,1-1.936.394C8658.668,3077.318,8658.522,3077.312,8658.363,3077.3Zm0-2.956a4.547,4.547,0,0,1-1.533-.4,3.382,3.382,0,0,0-1.422-.326,5.573,5.573,0,0,0-2.8.687c-.259.133-.541-.065-.633-.444a.856.856,0,0,1,.3-.931,6.391,6.391,0,0,1,3.151-.768,4.062,4.062,0,0,1,1.677.383,3.822,3.822,0,0,0,1.32.346,4.56,4.56,0,0,0,2.094-.337,6.278,6.278,0,0,1,1.448-.374c.279-.028.512.27.533.67s-.183.752-.457.783a5.658,5.658,0,0,0-1.3.337,5.422,5.422,0,0,1-1.936.394C8658.668,3074.363,8658.522,3074.356,8658.363,3074.343Zm6.806-.043a6.313,6.313,0,0,0-1.292-.511.754.754,0,0,1-.4-.846c.048-.4.308-.661.577-.585a6.868,6.868,0,0,1,1.45.574.854.854,0,0,1,.3.933c-.071.3-.263.479-.465.479A.352.352,0,0,1,8665.169,3074.3Z" transform="translate(-8651.944 -3072.159)" fill="#424242"/>
      </g>
      <path id="path-3" data-name="path" d="M8667.449,3506.98a.468.468,0,0,1-.159-.092l-1.979-1.709a.387.387,0,0,1,0-.605.554.554,0,0,1,.7,0l1.135.98v-8.192l-1.135.98a.548.548,0,0,1-.7,0,.387.387,0,0,1,0-.605l1.979-1.709a.5.5,0,0,1,.159-.092.567.567,0,0,1,.379,0,.535.535,0,0,1,.161.092l1.979,1.709a.391.391,0,0,1,0,.605.55.55,0,0,1-.7,0l-1.134-.98v8.192l1.134-.98a.558.558,0,0,1,.7,0,.391.391,0,0,1,0,.605l-1.979,1.709a.5.5,0,0,1-.161.092.535.535,0,0,1-.379,0Zm-5.763-12a.991.991,0,1,1,0-1.981h11.9a.991.991,0,0,1,0,1.981Z" transform="translate(-8651.944 -3087)" fill="#424242" stroke="#424242" stroke-width="0.3"/>
    </g>
    <rect id="ico-mask-20px" width="20" height="20" transform="translate(15 495)" fill="none"/>
  </g>
</svg>
