<svg xmlns="http://www.w3.org/2000/svg" width="16" height="16" viewBox="0 0 16 16">
  <g id="ico_layer_c_11" transform="translate(-7.768 -1.417)">
    <g id="그룹_1040" data-name="그룹 1040" transform="translate(8.003 15.904)">
      <path id="패스_964" data-name="패스 964" d="M24.331,78a6.419,6.419,0,0,0-2.1.4,5.657,5.657,0,0,1-1.846.359,5.344,5.344,0,0,1-1.9-.4A4.823,4.823,0,0,0,16.843,78a4.823,4.823,0,0,0-1.645.361,5.343,5.343,0,0,1-1.9.4,5.658,5.658,0,0,1-1.846-.359,6.419,6.419,0,0,0-2.1-.4.379.379,0,1,0,0,.757,5.658,5.658,0,0,1,1.846.359,6.419,6.419,0,0,0,2.1.4,6.119,6.119,0,0,0,2.173-.442,4.06,4.06,0,0,1,1.375-.315,4.061,4.061,0,0,1,1.375.315,6.12,6.12,0,0,0,2.173.442,6.419,6.419,0,0,0,2.1-.4,5.659,5.659,0,0,1,1.846-.359.379.379,0,1,0,0-.757Z" transform="translate(-8.96 -78)" fill="#424242"/>
    </g>
    <g id="그룹_1041" data-name="그룹 1041" transform="translate(8.003 14.242)">
      <path id="패스_965" data-name="패스 965" d="M24.331,69.214a6.424,6.424,0,0,0-2.1.4,5.653,5.653,0,0,1-1.846.359,5.348,5.348,0,0,1-1.9-.4,4.823,4.823,0,0,0-1.645-.361,4.823,4.823,0,0,0-1.645.361,5.347,5.347,0,0,1-1.9.4,5.654,5.654,0,0,1-1.846-.359,6.424,6.424,0,0,0-2.1-.4.379.379,0,1,0,0,.757,5.658,5.658,0,0,1,1.846.359,6.419,6.419,0,0,0,2.1.4,6.119,6.119,0,0,0,2.173-.442,4.056,4.056,0,0,1,1.375-.315,4.056,4.056,0,0,1,1.375.315,6.12,6.12,0,0,0,2.173.442,6.419,6.419,0,0,0,2.1-.4,5.659,5.659,0,0,1,1.846-.359.379.379,0,1,0,0-.757Z" transform="translate(-8.96 -69.214)" fill="#424242"/>
    </g>
    <g id="그룹_1042" data-name="그룹 1042" transform="translate(7.768 1.417)">
      <path id="패스_966" data-name="패스 966" d="M38.729,70.593l.242.136a.4.4,0,0,0,.539-.136.364.364,0,0,0,.042-.28c-.154.048-.3.1-.452.153C38.978,70.509,38.855,70.552,38.729,70.593Z" transform="translate(-32.628 -57.28)" fill="#424242"/>
      <path id="패스_967" data-name="패스 967" d="M83.413,69.214a5.14,5.14,0,0,0-.871.074l.119.067a.37.37,0,0,1,.141.518l-.1.157a4.3,4.3,0,0,1,.706-.058.379.379,0,1,0,0-.757Z" transform="translate(-67.807 -56.389)" fill="#424242"/>
      <path id="패스_968" data-name="패스 968" d="M11.449,69.611a6.424,6.424,0,0,0-2.1-.4.379.379,0,1,0,0,.757,5.658,5.658,0,0,1,1.846.359,6.419,6.419,0,0,0,2.1.4c.077,0,.149,0,.222-.007l-1.855-1.041Z" transform="translate(-8.725 -56.389)" fill="#424242"/>
      <path id="패스_969" data-name="패스 969" d="M25.717,14.315l-3.964-2.224.4-.653.68.382a.409.409,0,0,0,.3.039A1.787,1.787,0,0,0,24.6,9.438a.379.379,0,0,0-.182-.231l-.68-.382.4-.653.68.382a.408.408,0,0,0,.3.039,1.787,1.787,0,0,0,1.475-2.421.381.381,0,0,0-.182-.231l-.68-.382.2-.327a.37.37,0,0,0-.141-.518.4.4,0,0,0-.539.136l-.2.326L24.369,4.8a.407.407,0,0,0-.437.025.371.371,0,0,0-.143.4c.227.832-.046,1.28-.912,1.5a.385.385,0,0,0-.29.315.373.373,0,0,0,.192.378l.68.382-.4.653-.681-.382a.407.407,0,0,0-.437.025.371.371,0,0,0-.143.4c.227.832-.046,1.28-.912,1.5a.385.385,0,0,0-.29.315.373.373,0,0,0,.192.378l.68.382-.4.653L17.669,9.8l.6-.98.68.382a.409.409,0,0,0,.3.039A1.787,1.787,0,0,0,20.72,6.82a.379.379,0,0,0-.182-.231l-.68-.382.6-.98.68.382a.407.407,0,0,0,.3.039,1.786,1.786,0,0,0,1.475-2.421A.379.379,0,0,0,22.726,3l-.68-.382.2-.327A.37.37,0,0,0,22.1,1.77a.4.4,0,0,0-.539.136l-.2.326L20,1.469a.407.407,0,0,0-.437.025.371.371,0,0,0-.143.4c.227.832-.045,1.28-.912,1.5a.385.385,0,0,0-.291.315.373.373,0,0,0,.192.378l1.361.764-.6.98-1.361-.764a.407.407,0,0,0-.437.025.371.371,0,0,0-.143.4c.227.832-.046,1.28-.912,1.5a.385.385,0,0,0-.29.315.373.373,0,0,0,.192.378l1.361.764-.6.98L12.906,7.127a.4.4,0,0,0-.539.136l-.6.98L23.616,14.89c.3-.067.585-.157.876-.25A8.716,8.716,0,0,1,25.717,14.315Z" transform="translate(-10.981 -1.417)" fill="#424242"/>
      <path id="패스_970" data-name="패스 970" d="M13.869,46.829l-.439-.246a.37.37,0,0,1-.141-.518.4.4,0,0,1,.539-.136l.68.382a.378.378,0,0,1,.184.238,3.9,3.9,0,0,1,1.193-.208,4.823,4.823,0,0,1,1.645.361,6.1,6.1,0,0,0,1.46.372L8.176,41.005a4.08,4.08,0,0,0,1.737,5.357l.793.445a5.163,5.163,0,0,0,1.633.291A4.7,4.7,0,0,0,13.869,46.829ZM11.928,45.3a.4.4,0,0,1-.539.136l-.68-.382a.37.37,0,0,1-.141-.518.4.4,0,0,1,.539-.136l.68.382A.37.37,0,0,1,11.928,45.3Z" transform="translate(-7.768 -33.516)" fill="#424242"/>
    </g>
  </g>
</svg>
