<svg xmlns="http://www.w3.org/2000/svg" width="16" height="16" viewBox="0 0 16 16">
  <g id="ico_layer_c_06_on" transform="translate(0 -0.005)">
    <path id="패스_951" data-name="패스 951" d="M173.126,351.568a1.537,1.537,0,0,0,1.985-.016.938.938,0,0,1,1.195,0,1.538,1.538,0,0,0,2,.005l-.071-.789H173.2Z" transform="translate(-167.716 -339.803)" fill="#eee"/>
    <path id="패스_952" data-name="패스 952" d="M158.535,3.9a.469.469,0,0,0,0,.937h.622l-.089,1h4.118l-.089-1h.622a.469.469,0,0,0,0-.937h-.662v-.96h.662a.469.469,0,0,0,0-.937h-.662V1.932a1.929,1.929,0,0,0-3.859,0v.073h-.662a.469.469,0,0,0,0,.937h.662V3.9h-.662Zm2.123-.96h.937V3.9h-.937Z" transform="translate(-153.127)" fill="#eee"/>
    <path id="패스_953" data-name="패스 953" d="M15.6,403.707a2.5,2.5,0,0,1-.938-.364.481.481,0,0,0-.52,0,2.462,2.462,0,0,1-2.68,0,.481.481,0,0,0-.52,0,2.462,2.462,0,0,1-2.68,0,.481.481,0,0,0-.52,0,2.462,2.462,0,0,1-2.68,0,.481.481,0,0,0-.52,0,2.462,2.462,0,0,1-2.68,0,.481.481,0,0,0-.52,0,2.5,2.5,0,0,1-.938.364.482.482,0,0,0-.4.475v2a.482.482,0,0,0,.482.482H15.518a.482.482,0,0,0,.482-.482v-2a.482.482,0,0,0-.4-.475Z" transform="translate(0 -390.66)" fill="#eee"/>
    <path id="패스_954" data-name="패스 954" d="M178.1,284.831h4.869l-.1-1.159H178.2Z" transform="translate(-172.535 -274.803)" fill="#eee"/>
    <path id="패스_955" data-name="패스 955" d="M184.212,216.576l-.1,1.159H188.6l-.1-1.159Z" transform="translate(-178.355 -209.803)" fill="#eee"/>
  </g>
</svg>
