<svg xmlns="http://www.w3.org/2000/svg" width="16" height="16" viewBox="0 0 16 16">
  <g id="ico_layer_c_05_on" transform="translate(-625 -98)">
    <rect id="ico_layer_a_1" width="16" height="16" transform="translate(625 98)" fill="none"/>
    <path id="패스_1063" data-name="패스 1063" d="M19.249,7h-.726V5.4h.726a.763.763,0,0,0,.737-.789A.768.768,0,0,0,19.27,3.8H4.722a.764.764,0,0,0-.737.789A.768.768,0,0,0,4.7,5.4h.747V7H4.722A.766.766,0,0,0,4,7.8v5.6H5.449V11.8S6.9,8.6,11.986,8.6s6.537,3.2,6.537,3.2v1.6h1.453V7.8A.766.766,0,0,0,19.249,7ZM8.354,7H6.9V5.4H8.354ZM11.26,7H9.807V5.4H11.26Zm2.905,0H12.712V5.4h1.453ZM17.07,7H15.618V5.4H17.07Z" transform="translate(621.014 97.398)" fill="#eee"/>
  </g>
</svg>
