<svg xmlns="http://www.w3.org/2000/svg" width="20" height="20" viewBox="0 0 20 20">
  <g id="ico_tool_area" transform="translate(-15 -160)">
    <path id="패스_96" data-name="패스 96" d="M559.531,214.514l-1.578-7.954a2.088,2.088,0,1,0-2.43-2.287h-6.046a2.073,2.073,0,1,0-2.43,2.287l-1.579,7.954a2.088,2.088,0,1,0,2.162,2.314h9.738a2.073,2.073,0,1,0,2.162-2.314Zm-12.73.4,1.715-8.636a2.1,2.1,0,0,0,.632-.609h6.7a2.1,2.1,0,0,0,.632.609l1.715,8.636a2.1,2.1,0,0,0-.5.519H547.3A2.1,2.1,0,0,0,546.8,214.914Zm10.776-11.105a.7.7,0,1,1-.692.7A.7.7,0,0,1,557.577,203.809Zm-10.846.7a.692.692,0,1,1,.692.7A.7.7,0,0,1,546.731,204.506Zm-1.154,12.787a.7.7,0,1,1,.692-.7A.7.7,0,0,1,545.577,217.293Zm13.846,0a.7.7,0,1,1,.692-.7A.7.7,0,0,1,559.423,217.293Z" transform="translate(-527.5 -40.551)" fill="#e5e7eb" stroke="#111" stroke-width="0.3"/>
    <rect id="사각형_185" data-name="사각형 185" width="20" height="20" transform="translate(15 160)" fill="none"/>
  </g>
</svg>
