<svg xmlns="http://www.w3.org/2000/svg" width="16" height="16" viewBox="0 0 16 16">
  <g id="ico_layer_a_01" transform="translate(182.143 -25.165)">
    <g id="그룹_1068" data-name="그룹 1068" transform="translate(-182.143 38.324)">
      <path id="패스_998" data-name="패스 998" d="M-166.543,90.393a6.238,6.238,0,0,0-2.127.424,5.5,5.5,0,0,1-1.873.383,5.2,5.2,0,0,1-1.93-.422,4.7,4.7,0,0,0-1.67-.385,4.693,4.693,0,0,0-1.67.385,5.2,5.2,0,0,1-1.93.422,5.5,5.5,0,0,1-1.873-.383,6.239,6.239,0,0,0-2.127-.424.4.4,0,0,0-.4.4.4.4,0,0,0,.4.4,5.5,5.5,0,0,1,1.873.383,6.239,6.239,0,0,0,2.127.424,5.955,5.955,0,0,0,2.205-.471,3.953,3.953,0,0,1,1.395-.336,3.955,3.955,0,0,1,1.4.336,5.954,5.954,0,0,0,2.2.471,6.238,6.238,0,0,0,2.127-.424,5.5,5.5,0,0,1,1.873-.383.4.4,0,0,0,.4-.4A.4.4,0,0,0-166.543,90.393Z" transform="translate(182.143 -90.393)" fill="#424242"/>
    </g>
    <g id="그룹_1069" data-name="그룹 1069" transform="translate(-182.143 36.552)">
      <path id="패스_999" data-name="패스 999" d="M-166.543,81.607a6.244,6.244,0,0,0-2.127.424,5.5,5.5,0,0,1-1.873.383,5.2,5.2,0,0,1-1.93-.422,4.7,4.7,0,0,0-1.67-.385,4.693,4.693,0,0,0-1.67.385,5.205,5.205,0,0,1-1.93.422,5.5,5.5,0,0,1-1.873-.383,6.244,6.244,0,0,0-2.127-.424.4.4,0,0,0-.4.4.4.4,0,0,0,.4.4,5.5,5.5,0,0,1,1.873.383,6.239,6.239,0,0,0,2.127.424,5.955,5.955,0,0,0,2.205-.471,3.948,3.948,0,0,1,1.395-.336,3.951,3.951,0,0,1,1.4.336,5.954,5.954,0,0,0,2.2.471,6.238,6.238,0,0,0,2.127-.424,5.5,5.5,0,0,1,1.873-.383.4.4,0,0,0,.4-.4A.4.4,0,0,0-166.543,81.607Z" transform="translate(182.143 -81.607)" fill="#424242"/>
    </g>
    <g id="그룹_1070" data-name="그룹 1070" transform="translate(-182.143 34.779)">
      <path id="패스_1000" data-name="패스 1000" d="M-166.543,72.821a6.244,6.244,0,0,0-2.127.424,5.5,5.5,0,0,1-1.873.383,5.2,5.2,0,0,1-1.93-.422,4.7,4.7,0,0,0-1.67-.385,4.693,4.693,0,0,0-1.67.385,5.205,5.205,0,0,1-1.93.422,5.5,5.5,0,0,1-1.873-.383,6.244,6.244,0,0,0-2.127-.424.4.4,0,0,0-.4.4.4.4,0,0,0,.4.4,5.5,5.5,0,0,1,1.873.383,6.244,6.244,0,0,0,2.127.424,5.955,5.955,0,0,0,2.205-.471,3.948,3.948,0,0,1,1.395-.336,3.95,3.95,0,0,1,1.4.336,5.954,5.954,0,0,0,2.2.471,6.244,6.244,0,0,0,2.127-.424,5.5,5.5,0,0,1,1.873-.383.4.4,0,0,0,.4-.4A.4.4,0,0,0-166.543,72.821Z" transform="translate(182.143 -72.821)" fill="#424242"/>
    </g>
    <g id="그룹_1071" data-name="그룹 1071" transform="translate(-182.143 38.652)">
      <path id="패스_1001" data-name="패스 1001" d="M-182.143,92.019v.019c0-.007,0-.013,0-.019Z" transform="translate(182.143 -92.019)" fill="#424242"/>
      <path id="패스_1002" data-name="패스 1002" d="M-102.156,92.019c0,.006,0,.013,0,.019v-.019Z" transform="translate(118.153 -92.019)" fill="#424242"/>
      <path id="패스_1003" data-name="패스 1003" d="M-166.543,92.406a7.347,7.347,0,0,0-1.873.277,8.345,8.345,0,0,1-2.127.307,7.922,7.922,0,0,1-2.2-.341,5.234,5.234,0,0,0-1.4-.243,5.232,5.232,0,0,0-1.395.243,7.923,7.923,0,0,1-2.205.341,8.345,8.345,0,0,1-2.127-.307,7.345,7.345,0,0,0-1.873-.277c-.221,0-.4-.131-.4-.292v2.493h16V92.114C-166.143,92.275-166.322,92.406-166.543,92.406Z" transform="translate(182.143 -92.095)" fill="#424242"/>
    </g>
    <path id="패스_1004" data-name="패스 1004" d="M-156.81,25.165a3.683,3.683,0,0,0-3.667,3.7c0,2.815,3.391,5.045,3.535,5.139a.242.242,0,0,0,.265,0c.144-.094,3.534-2.324,3.534-5.139A3.683,3.683,0,0,0-156.81,25.165Zm-.116,7a.615.615,0,0,1-.614-.626.61.61,0,0,1,.614-.612.629.629,0,0,1,.62.612A.634.634,0,0,1-156.926,32.162Zm1.029-2.551a.9.9,0,0,0-.545.866v.1h-1v-.1c0-.829.211-1.087.6-1.334.3-.2.528-.389.532-.688a.5.5,0,0,0-.532-.5.541.541,0,0,0-.559.55h-1.084a1.463,1.463,0,0,1,1.65-1.465c.989,0,1.7.481,1.7,1.355A1.351,1.351,0,0,1-155.9,29.61Z" transform="translate(-17.333)" fill="#424242"/>
  </g>
</svg>
