<svg xmlns="http://www.w3.org/2000/svg" width="16" height="16" viewBox="0 0 16 16">
  <g id="ico_layer_c_01_on" transform="translate(0 0)">
    <path id="패스_944" data-name="패스 944" d="M215.719,390.581a8.2,8.2,0,0,0-1.8,1.488.555.555,0,0,0,0,.757,8,8,0,0,0,1.967,1.582,2.813,2.813,0,0,0,.522-2.656A3.3,3.3,0,0,0,215.719,390.581Z" transform="translate(-208.659 -379.014)" fill="#eee"/>
    <path id="패스_945" data-name="패스 945" d="M301.942,372.126a.53.53,0,0,0-.546.194l-.752.978c-1.685-1.662-3.471-2.247-5.254-1.656a4.456,4.456,0,0,1,.681,1.252,3.823,3.823,0,0,1-.511,3.483c1.7.494,3.437-.059,5.126-1.748l.7.873a.532.532,0,0,0,.547.183,1.989,1.989,0,0,0,1.364-1.815,1.9,1.9,0,0,0-1.357-1.744Z" transform="translate(-287.299 -360.551)" fill="#eee"/>
    <path id="패스_946" data-name="패스 946" d="M1.824,204.872a7.68,7.68,0,0,0-1.685,1.393.52.52,0,0,0,0,.709,7.49,7.49,0,0,0,1.843,1.481,2.635,2.635,0,0,0,.489-2.488A3.09,3.09,0,0,0,1.824,204.872Z" transform="translate(0 -198.828)" fill="#eee"/>
    <path id="패스_947" data-name="패스 947" d="M87.237,189.534a.5.5,0,0,0,.512.171,1.863,1.863,0,0,0,1.278-1.7,1.776,1.776,0,0,0-1.271-1.634.5.5,0,0,0-.511.181l-.7.916c-1.578-1.557-3.251-2.1-4.921-1.551a4.173,4.173,0,0,1,.638,1.173,3.582,3.582,0,0,1-.478,3.262c1.589.463,3.219-.056,4.8-1.637Z" transform="translate(-78.83 -180.32)" fill="#eee"/>
    <path id="패스_948" data-name="패스 948" d="M215.807,22.847a2.707,2.707,0,0,0,.5-2.556,3.175,3.175,0,0,0-.664-1.127,7.892,7.892,0,0,0-1.732,1.432.535.535,0,0,0,0,.729A7.7,7.7,0,0,0,215.807,22.847Z" transform="translate(-208.251 -18.491)" fill="#eee"/>
    <path id="패스_949" data-name="패스 949" d="M295.554,4.773c1.633.475,3.308-.057,4.933-1.682l.675.84a.512.512,0,0,0,.527.176A1.914,1.914,0,0,0,303,2.36,1.825,1.825,0,0,0,301.7.681a.51.51,0,0,0-.525.186l-.724.942C298.825.21,297.106-.353,295.39.216a4.288,4.288,0,0,1,.655,1.2,3.68,3.68,0,0,1-.492,3.352Z" transform="translate(-287.002)" fill="#eee"/>
  </g>
</svg>
