<svg xmlns="http://www.w3.org/2000/svg" width="20" height="20" viewBox="0 0 20 20">
  <g id="ico_tool_print" transform="translate(-15 -395)">
    <g id="그룹_534" data-name="그룹 534" transform="translate(8.5 267.327)">
      <path id="패스_34" data-name="패스 34" d="M1202.154,299.3v-1.262a2.541,2.541,0,0,0-2.539-2.539h-9.231a2.541,2.541,0,0,0-2.538,2.539V299.3a2.533,2.533,0,0,0-1.846,2.43v3.692a2.541,2.541,0,0,0,2.539,2.539h1.154v3a1.617,1.617,0,0,0,1.615,1.615h7.385a1.617,1.617,0,0,0,1.615-1.615v-3h1.154a2.541,2.541,0,0,0,2.538-2.539v-3.692A2.533,2.533,0,0,0,1202.154,299.3Zm-11.769-2.416h9.231a1.155,1.155,0,0,1,1.154,1.154v1.154h-11.539v-1.154A1.156,1.156,0,0,1,1190.385,296.885Zm8.538,14.077a.231.231,0,0,1-.231.231h-7.385a.231.231,0,0,1-.231-.231v-6.692h7.846Zm3.692-5.539a1.155,1.155,0,0,1-1.154,1.154h-1.154v-3a.693.693,0,0,0-.692-.692h-9.231a.693.693,0,0,0-.692.692v3h-1.154a1.156,1.156,0,0,1-1.154-1.154v-3.692a1.156,1.156,0,0,1,1.154-1.154h12.923a1.155,1.155,0,0,1,1.154,1.154Z" transform="translate(-1178.5 -166.365)" fill="#111" stroke="#111" stroke-width="0.5"/>
      <path id="패스_35" data-name="패스 35" d="M1197.385,306.5h-3.692a.692.692,0,0,0,0,1.385h3.692a.692.692,0,1,0,0-1.385Z" transform="translate(-1179.038 -167.212)" fill="#111" stroke="#111" stroke-width="0.5"/>
      <path id="패스_36" data-name="패스 36" d="M1197.385,309.5h-3.692a.692.692,0,0,0,0,1.385h3.692a.692.692,0,1,0,0-1.385Z" transform="translate(-1179.038 -167.442)" fill="#111" stroke="#111" stroke-width="0.5"/>
    </g>
    <rect id="사각형_188" data-name="사각형 188" width="20" height="20" transform="translate(15 395)" fill="none"/>
  </g>
</svg>
