<svg xmlns="http://www.w3.org/2000/svg" width="20" height="20" viewBox="0 0 20 20">
  <g id="ico_tool_zoom_in" transform="translate(-15 -15)">
    <path id="패스_93" data-name="패스 93" d="M-97.379,1266.736h-4.2v-4.2a1.4,1.4,0,0,0-1.4-1.4,1.4,1.4,0,0,0-1.4,1.4v4.2h-4.2a1.4,1.4,0,0,0-1.4,1.4,1.4,1.4,0,0,0,1.4,1.4h4.2v4.2a1.4,1.4,0,0,0,1.4,1.4,1.4,1.4,0,0,0,1.4-1.4v-4.2h4.2a1.4,1.4,0,0,0,1.4-1.4A1.4,1.4,0,0,0-97.379,1266.736Z" transform="translate(127.979 -1243.136)" fill="#111"/>
    <rect id="사각형_191" data-name="사각형 191" width="20" height="20" transform="translate(15 15)" fill="none"/>
  </g>
</svg>
