<svg xmlns="http://www.w3.org/2000/svg" width="20" height="20" viewBox="0 0 20 20">
  <g id="ico_layer" transform="translate(-15 -15)">
    <path id="Fill-and-stroke" d="M13.966,12h-2v2a2,2,0,0,1-2,2h-8a2,2,0,0,1-2-2V6a2,2,0,0,1,2-2h2V2a2,2,0,0,1,2-2h8a2,2,0,0,1,2,2v8A2,2,0,0,1,13.966,12Zm0-10h-8V4h4a2,2,0,0,1,2,2v4h2Z" transform="translate(17.034 17)" fill="#196DFF" fill-rule="evenodd"/>
    <rect id="사각형_192" data-name="사각형 192" width="20" height="20" transform="translate(15 15)" fill="none"/>
  </g>
</svg>
