<svg xmlns="http://www.w3.org/2000/svg" width="16" height="16" viewBox="0 0 16 16">
  <g id="ico_layer_c_02" transform="translate(-7 -7)">
    <path id="패스_971" data-name="패스 971" d="M22.919,45.742a1.885,1.885,0,0,0-2.5-.46.58.58,0,0,1-.6,0,1.809,1.809,0,0,0-1.956,0,.58.58,0,0,1-.6,0,1.809,1.809,0,0,0-1.956,0,.58.58,0,0,1-.6,0,1.809,1.809,0,0,0-1.956,0,.58.58,0,0,1-.6,0,1.809,1.809,0,0,0-1.956,0,.58.58,0,0,1-.6,0,1.884,1.884,0,0,0-2.5.46A.319.319,0,0,0,7,45.954v2.56a.32.32,0,0,0,.32.32H22.68a.32.32,0,0,0,.32-.32v-2.56A.319.319,0,0,0,22.919,45.742Z" transform="translate(0 -25.834)" fill="#424242"/>
    <path id="패스_972" data-name="패스 972" d="M30.884,20.923a1.739,1.739,0,0,1,0-1.916A2.569,2.569,0,0,0,29,19.762v.41A2.571,2.571,0,0,0,30.884,20.923Z" transform="translate(-14.96 -8.165)" fill="#424242"/>
    <path id="패스_973" data-name="패스 973" d="M25,20.124v1.2a1.286,1.286,0,0,0,.64-.392v-.418A1.289,1.289,0,0,0,25,20.124Z" transform="translate(-12.24 -8.924)" fill="#424242"/>
    <path id="패스_974" data-name="패스 974" d="M21.627,18.469a.32.32,0,0,0,.346,0c.189-.122,4.627-3.016,4.627-6.669a4.8,4.8,0,1,0-9.6,0C17,15.453,21.438,18.348,21.627,18.469ZM18.92,12.76V10.84a.32.32,0,0,1,.32-.32,1.894,1.894,0,0,1,1.283.494,3.17,3.17,0,0,1,1.533-.746l-.162-.162a.32.32,0,0,1,.452-.452l.552.552A1.753,1.753,0,0,1,24.68,11.8,1.753,1.753,0,0,1,22.9,13.394l-.552.552a.32.32,0,0,1-.452-.452l.162-.162a3.179,3.179,0,0,1-1.531-.748,1.9,1.9,0,0,1-1.285.5A.32.32,0,0,1,18.92,12.76Z" transform="translate(-6.8)" fill="#424242"/>
    <path id="패스_975" data-name="패스 975" d="M36.969,20.256a.965.965,0,0,0-.624-.821,1.182,1.182,0,0,0,0,1.642A.965.965,0,0,0,36.969,20.256Z" transform="translate(-19.729 -8.456)" fill="#424242"/>
  </g>
</svg>
