<svg width="18" height="13" viewBox="0 0 18 13" fill="none" xmlns="http://www.w3.org/2000/svg">
<path d="M11.749 12.5C10.083 12.5 8.66667 11.9167 7.5 10.75C6.33333 9.58333 5.75 8.16701 5.75 6.50104C5.75 4.84757 6.33333 3.43403 7.5 2.26042C8.66667 1.08681 10.083 0.5 11.749 0.5C13.4024 0.5 14.816 1.08681 15.9896 2.26042C17.1632 3.43403 17.75 4.84757 17.75 6.50104C17.75 8.16701 17.1632 9.58333 15.9896 10.75C14.816 11.9167 13.4024 12.5 11.749 12.5ZM13.4583 9.29167L14.5208 8.22917L12.4981 6.20229V3.5H11V6.8175L13.4583 9.29167ZM1.5 4V2.5H4.5V4H1.5ZM0.5 7.25V5.75H4.5V7.25H0.5ZM1.5 10.5V9H4.5V10.5H1.5Z" fill="#717171"/>
</svg>
