<svg width="8" height="10" viewBox="0 0 8 10" fill="none" xmlns="http://www.w3.org/2000/svg">
<path d="M0.416992 8.51108V1.489C0.416992 1.27956 0.485047 1.11469 0.621159 0.994417C0.75727 0.874278 0.91609 0.814209 1.09762 0.814209C1.15428 0.814209 1.21373 0.823306 1.27595 0.841501C1.33817 0.859556 1.39845 0.885875 1.45678 0.920458L6.85595 4.44713C6.95651 4.51574 7.03533 4.59747 7.09241 4.69233C7.14963 4.78719 7.17824 4.89088 7.17824 5.00338C7.17824 5.11588 7.14963 5.21956 7.09241 5.31442C7.03533 5.40928 6.95651 5.48879 6.85595 5.55296L1.45658 9.08213C1.3981 9.11671 1.33664 9.14268 1.2722 9.16004C1.20776 9.17726 1.1463 9.18588 1.08783 9.18588C0.90852 9.18588 0.751923 9.12581 0.618034 9.00567C0.484006 8.88539 0.416992 8.72053 0.416992 8.51108Z" fill="#555555"/>
</svg>
